<?xml version="1.0" standalone="no"?>
<!DOCTYPE svg PUBLIC "-//W3C//DTD SVG 1.1//EN" "http://www.w3.org/Graphics/SVG/1.1/DTD/svg11.dtd" >
<svg>
<metadata>
Created by FontForge 20110222 at Mon Mar  7 08:09:28 2011
 By www-data
Mortal Kombat Mythologies Font(c) 2002 MuRdOiNk - ]{0MBAT(c) 2002 Mortal Kombat. All rights reserved.
</metadata>
<defs>
<font id="MortalKombatMythologies" horiz-adv-x="490" >
  <font-face 
    font-family="Mortal Kombat Mythologies"
    font-weight="400"
    font-stretch="normal"
    units-per-em="2048"
    panose-1="4 2 5 5 2 14 3 4 5 4"
    ascent="1638"
    descent="-410"
    x-height="1500"
    cap-height="1500"
    bbox="-55 -400 2110 1948"
    underline-thickness="40"
    underline-position="-246"
    unicode-range="U+0020-2122"
  />
    <missing-glyph />
    <glyph glyph-name="space" unicode=" " horiz-adv-x="400" 
 />
    <glyph glyph-name="exclam" unicode="!" 
d="M366 1500q0 -70 -6 -258q-11 -346 -13 -433q-7 -310 -7 -551h-192q0 285 -6 550q-2 91 -13 434q-7 219 -7 258h244zM340 0h-192v192h192v-192z" />
    <glyph glyph-name="quotedbl" unicode="&#x22;" horiz-adv-x="754" 
d="M624 1500q-20 -230 -20 -298h-152q0 68 -20 298h192zM322 1500q-20 -230 -20 -298h-152q0 68 -20 298h192z" />
    <glyph glyph-name="numbersign" unicode="#" horiz-adv-x="1116" 
d="M1068 968l-20 -170h-212l-24 -198h212l-22 -170h-210l-52 -430h-176l54 430h-182l-52 -430h-176l54 430h-210l22 170h210l24 198h-210l20 170h210l48 386h172l-46 -386h182l48 386h172l-46 -386h210zM460 822l-30 -246h232l30 246h-232z" />
    <glyph glyph-name="dollar" unicode="$" horiz-adv-x="992" 
d="M890 332q0 -132 -82 -218.5t-226 -107.5q0 -60 36 -126h-252q19 29 28.5 62t9.5 64q-87 15 -169 59t-165 121l142 188q52 -85 132 -144.5t148 -59.5q87 0 136.5 46.5t49.5 127.5q0 74 -55 147q-41 55 -157 157q-74 65 -147 131q-79 75 -117 137q-48 79 -48 160
q0 103 56 172q52 65 150 96q0 34 -8.5 64.5t-29.5 61.5h252q-36 -66 -36 -120q54 -11 98.5 -29.5t95.5 -50.5l-126 -168q-45 38 -78.5 51t-65.5 13q-52 0 -78 -22t-26 -58q0 -54 93.5 -141t190.5 -175q153 -148 196 -220q52 -87 52 -218z" />
    <glyph glyph-name="percent" unicode="%" horiz-adv-x="1536" 
d="M1418 346q0 -176 -59 -268q-63 -98 -191 -98q-119 0 -180 110q-52 94 -52 248q0 174 54 305q64 155 176 155q125 0 194 -150q58 -126 58 -302zM1188 1354q-49 -61 -76 -102t-42 -78l-464 -1174h-230q40 44 74 106q21 38 40 86l464 1162h234zM600 902q0 -176 -59 -268
q-63 -98 -191 -98q-119 0 -180 110q-52 94 -52 248q0 174 54 305q64 155 176 155q125 0 194 -150q58 -126 58 -302zM1270 364q0 93 -24 165q-29 87 -76 87q-39 0 -62.5 -85.5t-23.5 -178.5q0 -105 26 -155q21 -41 60 -41q61 0 84 65q16 45 16 143zM452 920q0 93 -24 165
q-29 87 -76 87q-39 0 -62.5 -85.5t-23.5 -178.5q0 -105 26 -155q21 -41 60 -41q61 0 84 65q16 45 16 143z" />
    <glyph glyph-name="ampersand" unicode="&#x26;" horiz-adv-x="1146" 
d="M1054 736q-23 -42 -30.5 -85.5t-7.5 -90.5v-352q0 -19 -20 -36q-63 -48 -78 -58q-72 -48 -147 -76q-103 -38 -207 -38q-222 0 -350 142q-118 131 -118 334q0 145 89 279q79 118 191 181q-91 29 -141 87q-55 64 -55 161q0 134 93 225t239 91q90 0 156.5 -18.5t115.5 -55.5
l-90 -178q-50 35 -94 50.5t-98 15.5q-55 0 -91.5 -35.5t-36.5 -94.5q0 -66 72.5 -114t185.5 -48l-16 -170q-146 -17 -236 -129q-86 -106 -86 -247q0 -122 71 -204q76 -88 203 -88q57 0 103 13q56 16 131 65q12 9 13 10q7 8 7 22v266q0 54 -5 84q-9 53 -35 92h272z" />
    <glyph glyph-name="quotesingle" unicode="'" horiz-adv-x="452" 
d="M322 1500q-20 -230 -20 -298h-152q0 68 -20 298h192z" />
    <glyph glyph-name="parenleft" unicode="(" horiz-adv-x="488" 
d="M448 52l-64 -50q-6 -4 -8 -4q-6 0 -26 16q-117 103 -189 292q-77 202 -77 444q0 238 78 444q74 196 192 298q16 14 24 8q11 -7 27 -19q11 -8 37 -29q7 -5 7 -10q0 -9 -9 -24q-80 -146 -115 -287q-41 -163 -41 -377q0 -174 38 -346q42 -192 122 -334q6 -10 7 -15
q1 -4 -3 -7z" />
    <glyph glyph-name="parenright" unicode=")" horiz-adv-x="488" 
d="M396 750q0 -243 -76 -444q-71 -187 -190 -292q-19 -16 -26 -16q-2 0 -8 4l-64 46q-5 5 -5 6q0 3 9 20q78 139 121 333q39 176 39 347q0 217 -40 376q-35 139 -116 288q-9 17 -9 24q0 5 7 10q21 17 36 28q20 15 28 20q5 3 9 2q5 -1 15 -10q118 -103 192 -297
q78 -206 78 -445z" />
    <glyph glyph-name="asterisk" unicode="*" horiz-adv-x="776" 
d="M706 1206q-15 3 -33 3q-27 0 -53.5 -6t-55.5 -17l-62 -24q10 -15 20.5 -29.5t21.5 -28.5q25 -31 45 -50q31 -30 65 -48l-168 -124q-3 32 -13 57q-13 33 -45 75q-7 10 -18.5 21.5t-21.5 22.5q-13 -14 -20 -22q-14 -15 -18 -20q-24 -31 -38 -59q-18 -36 -22 -75l-168 124
q36 19 65 47q16 15 45 51q10 12 26 35q9 13 16 23l-62 24q-29 11 -55.5 17t-55.5 6q-16 0 -31 -3l74 196q26 -31 56 -50q17 -10 64 -30q7 -3 28 -9q9 -2 22 -7v54q0 43 -4 67q-7 41 -28 73h212q-19 -32 -24.5 -65.5t-5.5 -74.5v-54q8 0 14 2q22 9 34 14q40 16 51 22
q37 19 69 58z" />
    <glyph glyph-name="plus" unicode="+" horiz-adv-x="680" 
d="M580 474h-158v-156h-164v156h-158v168h158v156h164v-156h158v-168z" />
    <glyph glyph-name="comma" unicode="," horiz-adv-x="300" 
d="M276 52q0 -76 -64.5 -149t-113.5 -73q-32 0 -64 32q27 30 43.5 56t26.5 58q-26 17 -42 48.5t-16 61.5q0 44 31 73t77 29q53 0 87.5 -40.5t34.5 -95.5z" />
    <glyph glyph-name="hyphen" unicode="-" horiz-adv-x="500" 
d="M358 562h-220v192h220v-192z" />
    <glyph glyph-name="hyphen" unicode="&#xad;" horiz-adv-x="500" 
d="M358 562h-220v192h220v-192z" />
    <glyph glyph-name="period" unicode="." horiz-adv-x="300" 
d="M250 100q0 -42 -30 -71t-72 -29t-72 29t-30 71t30 72t72 30t72 -30t30 -72z" />
    <glyph glyph-name="slash" unicode="/" horiz-adv-x="962" 
d="M886 1500l-610 -1500h-204l606 1500h208z" />
    <glyph glyph-name="zero" unicode="0" horiz-adv-x="910" 
d="M856 600q0 -299 -100 -455q-106 -165 -316 -165q-193 0 -296 186q-90 163 -90 420q0 181 41 348q46 187 127 296q92 124 216 124q139 0 239 -120q87 -103 135 -288q44 -168 44 -346zM680 624q0 203 -61 369q-70 191 -179 191q-96 0 -157 -201q-53 -176 -53 -385
q0 -170 45 -293q57 -155 165 -155q94 0 151 70q49 61 71 175q18 95 18 229z" />
    <glyph glyph-name="one" unicode="1" horiz-adv-x="448" 
d="M350 0h-250q27 40 35 91q5 30 5 85v872q0 37 -19 62.5t-61 35.5l252 238v-1208q0 -52 5 -82q9 -50 33 -94z" />
    <glyph glyph-name="two" unicode="2" horiz-adv-x="904" 
d="M798 0h-764v156q67 75 119 136q19 22 110 133q49 60 99 121q118 141 175 242q69 122 69 216q0 84 -54 135t-138 51q-47 0 -93.5 -24t-86.5 -68l-138 166q78 48 132 65q78 25 198 25q171 0 274 -98q98 -93 98 -232q0 -88 -36 -182q-31 -80 -94 -178q-46 -72 -126 -174
q-67 -88 -148 -182q-66 -76 -124 -136h358q64 0 91 7q36 10 79 45v-224z" />
    <glyph glyph-name="three" unicode="3" horiz-adv-x="926" 
d="M876 470q0 -216 -140 -354q-136 -134 -340 -134q-123 0 -198 16q-90 19 -190 74l128 188q54 -60 107.5 -83t156.5 -23q117 0 206.5 91.5t89.5 216.5q0 147 -101 220q-86 62 -231 62v150q108 18 154 47q66 41 66 125q0 47 -37.5 81.5t-86.5 34.5q-46 0 -86 -15.5
t-80 -46.5l-106 172q66 33 123 47.5t129 14.5q140 0 243 -72q113 -79 113 -204q0 -73 -34.5 -130t-99.5 -96q85 -38 144 -129q70 -109 70 -253z" />
    <glyph glyph-name="four" unicode="4" horiz-adv-x="852" 
d="M842 396h-258v-220q0 -52 5 -82q9 -50 33 -94h-252q27 40 35 91q5 30 5 85v220h-392v134l298 676q10 22 20 61t16 79h220l-354 -780h192v354l174 90v-444h258v-170z" />
    <glyph glyph-name="five" unicode="5" horiz-adv-x="916" 
d="M866 514q0 -243 -140.5 -387.5t-391.5 -144.5q-104 0 -175.5 21.5t-162.5 84.5l128 180q51 -48 108 -75q65 -31 134 -31q135 0 225.5 96.5t90.5 239.5q0 114 -71 187q-75 77 -197 77q-64 0 -115.5 -13.5t-104.5 -48.5v646h612v-234q-49 38 -81 51t-83 13h-282v-244
q37 8 94 8q180 0 296 -118t116 -308z" />
    <glyph glyph-name="six" unicode="6" horiz-adv-x="898" 
d="M868 384q0 -176 -110 -286t-274 -110q-195 0 -311.5 144.5t-116.5 379.5q0 209 120 452q114 230 276 380h224q-105 -104 -190 -218q-106 -142 -168 -288q-74 -173 -74 -326q0 -147 61 -242q66 -102 179 -102q87 0 141.5 62.5t54.5 169.5q0 73 -42 124.5t-98 51.5
q-41 0 -69.5 -25.5t-28.5 -58.5q0 -32 20 -56q17 -21 58 -42q-47 -50 -88 -50q-61 0 -102.5 54t-41.5 126q0 92 71 160t165 68q148 0 246 -104t98 -264z" />
    <glyph glyph-name="seven" unicode="7" horiz-adv-x="848" 
d="M800 1212q-120 -225 -213 -458q-80 -200 -163 -466q-12 -37 -18 -77.5t-6 -76.5q0 -67 16 -134h-274q23 116 46 200q20 73 52 160q60 161 129 334q65 163 124 304q42 100 77 180h-366q-67 0 -140 -56v224h736v-134z" />
    <glyph glyph-name="eight" unicode="8" horiz-adv-x="870" 
d="M826 480q0 -217 -96 -354q-103 -146 -280 -146q-182 0 -286 118q-110 124 -110 358q0 154 48 256.5t140 163.5q-46 37 -75 92.5t-29 119.5q0 112 83 190t197 78q127 0 210 -62q94 -70 94 -198q0 -72 -25 -127t-77 -91q88 -46 139 -128q67 -108 67 -270zM582 1084
q0 56 -42.5 94t-109.5 38q-57 0 -98.5 -39.5t-41.5 -96.5q0 -61 39.5 -102.5t104.5 -41.5q70 0 109 42t39 106zM642 488q0 121 -44 196q-54 92 -164 92q-107 0 -155 -97q-41 -82 -41 -235q0 -117 49 -198q57 -94 155 -94q108 0 157 92q43 81 43 244z" />
    <glyph glyph-name="nine" unicode="9" horiz-adv-x="956" 
d="M892 760q0 -196 -57 -366q-62 -185 -178 -292q-130 -120 -309 -120q-92 0 -179.5 28.5t-150.5 71.5l146 156q46 -43 91.5 -61.5t104.5 -18.5q111 0 193 97q70 83 110 221q35 121 35 236q-49 -46 -104.5 -68t-129.5 -22q-171 0 -267 104q-91 98 -91 254q0 161 86 262
q95 112 268 112q219 0 334 -186q98 -159 98 -408zM672 928q-18 101 -61 169q-59 93 -151 93q-71 0 -122.5 -56.5t-51.5 -129.5q0 -89 50.5 -146.5t135.5 -57.5q73 0 126.5 36t73.5 92z" />
    <glyph glyph-name="colon" unicode=":" horiz-adv-x="300" 
d="M250 740q0 -42 -30 -71t-72 -29t-72 29t-30 71t30 72t72 30t72 -30t30 -72zM250 100q0 -42 -30 -71t-72 -29t-72 29t-30 71t30 72t72 30t72 -30t30 -72z" />
    <glyph glyph-name="semicolon" unicode=";" horiz-adv-x="300" 
d="M260 700q0 -43 -31.5 -73.5t-76.5 -30.5q-44 0 -76 30t-32 74t32 76t76 32t76 -32t32 -76zM276 52q0 -76 -64.5 -149t-113.5 -73q-32 0 -64 32q27 30 43.5 56t26.5 58q-26 17 -42 48.5t-16 61.5q0 44 31 73t77 29q53 0 87.5 -40.5t34.5 -95.5z" />
    <glyph glyph-name="less" unicode="&#x3c;" horiz-adv-x="764" 
d="M628 354l-96 -118l-428 276v84l428 276l96 -118l-308 -200z" />
    <glyph glyph-name="equal" unicode="=" horiz-adv-x="580" 
d="M524 606h-476v162h476v-162zM524 348h-476v162h476v-162z" />
    <glyph glyph-name="greater" unicode="&#x3e;" horiz-adv-x="764" 
d="M660 512l-428 -276l-96 118l308 200l-308 200l96 118l428 -276v-84z" />
    <glyph glyph-name="question" unicode="?" horiz-adv-x="990" 
d="M910 1124q0 -95 -24 -164q-20 -59 -65 -114q-29 -36 -95 -98l-198 -192q-56 -54 -70 -98.5t-14 -140.5v-59h-192v148q0 87 43 157q32 52 129 149q102 102 152 156q73 79 102 126q36 58 36 108q0 76 -62 138t-150 62q-68 0 -133 -42q-70 -46 -111 -124l-172 96
q51 115 146 183q115 83 280 83q157 0 272 -98q126 -107 126 -276zM450 100q0 -42 -30 -71t-72 -29t-72 29t-30 71t30 72t72 30t72 -30t30 -72z" />
    <glyph glyph-name="at" unicode="@" horiz-adv-x="1342" 
d="M1290 772q0 -232 -86 -346q-77 -102 -214 -102q-87 0 -144 30t-86 84q-15 -9 -29.5 -13.5t-42.5 -4.5q-138 0 -225 84q-97 93 -97 264q0 165 103 281q109 123 275 123h182q-18 -117 -18 -180v-412q0 -102 94 -102q44 0 75 66q37 79 37 228q0 237 -102 393
q-112 171 -308 171q-207 0 -339.5 -162t-132.5 -402q0 -238 131 -391t343 -153v-184q-300 0 -483 214q-175 204 -175 514q0 305 178 512q186 216 480 216q279 0 438 -217q146 -200 146 -511zM738 602v422q-88 -14 -142 -83.5t-54 -176.5q0 -95 39 -142q33 -40 87 -40
q23 0 38.5 4t31.5 16z" />
    <glyph glyph-name="A" unicode="A" horiz-adv-x="1060" 
d="M950 0h-272q27 40 35 91q5 30 5 85v280h-436q0 -27 -1 -86t-1 -89q0 -98 8 -167t32 -114h-280q29 43 42.5 88t13.5 88v226q0 260 108.5 516.5t294.5 415.5q199 170 389 170h25.5t36.5 -4q-23 -40 -30.5 -81.5t-7.5 -88.5v-1154q0 -52 5 -82q9 -50 33 -94zM718 642v640
q-104 -56 -197 -181q-80 -107 -139 -244q-50 -115 -70 -215h406z" />
    <glyph glyph-name="B" unicode="B" horiz-adv-x="1072" 
d="M1034 816q0 -189 -151 -386q-142 -185 -359.5 -307.5t-415.5 -122.5q27 40 35 91q5 30 5 85v1148q0 54 -5 84q-9 53 -35 92h584q110 0 172 -36q80 -47 80 -150q0 -61 -34 -108.5t-102 -75.5q93 -25 157 -109q69 -90 69 -205zM728 1276q0 22 -18 34t-48 12h-320v-100h320
q30 0 48 15t18 39zM818 792q0 102 -70 173t-176 71h-230v-764q91 20 201 98q118 84 191 188q84 120 84 234z" />
    <glyph glyph-name="C" unicode="C" horiz-adv-x="1048" 
d="M988 -12q-237 57 -437 190q-217 145 -339 344q-136 221 -136 480q0 221 131.5 365.5t330.5 144.5q59 0 111 -3q156 -9 177 -9v-262q-69 46 -126.5 64t-131.5 18q-129 0 -208.5 -90.5t-79.5 -239.5q0 -211 132 -401q114 -164 290 -271q161 -98 286 -98v-232z" />
    <glyph glyph-name="D" unicode="D" horiz-adv-x="1120" 
d="M1044 516q0 -244 -115.5 -380t-304.5 -136h-516q27 40 35 91q5 30 5 85v1158q0 53 -5 84q-9 54 -35 96q210 -20 429 -165t357 -359q150 -233 150 -474zM846 514q0 220 -164 435q-155 203 -340 265v-1018h248q114 0 182 77q74 84 74 241z" />
    <glyph glyph-name="E" unicode="E" horiz-adv-x="1034" 
d="M982 0h-874q27 40 35 91q5 30 5 85v1148q0 54 -5 84q-9 53 -35 92h790v-248q-49 31 -78 41q-38 13 -98 13h-380v-80h500v-194h-500v-838h464q66 0 113 20q11 5 63 34v-248z" />
    <glyph glyph-name="F" unicode="F" horiz-adv-x="948" 
d="M898 1252q-51 31 -78 40q-40 14 -98 14h-380v-80h476v-194h-476v-856q0 -52 13 -91q10 -30 41 -85h-288q27 40 35 91q5 30 5 85v1148q0 54 -5 84q-9 53 -35 92h790v-248z" />
    <glyph glyph-name="G" unicode="G" horiz-adv-x="1146" 
d="M1044 -24q-403 110 -677 396q-291 304 -291 666q0 216 132 342q126 120 330 120h344v-272q-153 92 -298 92q-130 0 -215 -78q-93 -85 -93 -228q0 -205 174 -434q163 -215 354 -298v638q0 54 -5 84q-9 53 -35 92h270q-24 -44 -32 -95q-4 -27 -4 -81v-736q0 -67 23 -144
q7 -25 23 -64z" />
    <glyph glyph-name="H" unicode="H" horiz-adv-x="1132" 
d="M1024 1500q-25 -41 -32.5 -83.5t-7.5 -92.5v-1148q0 -52 5 -82q9 -50 33 -94h-272q27 40 35 91q5 30 5 85v818q-25 27 -52.5 41.5t-57.5 14.5q-38 0 -129 -35q-44 -17 -79 -17q-30 0 -67.5 6.5t-62.5 17.5v-846q0 -52 5 -82q9 -50 33 -94h-272q27 40 35 91q5 30 5 85
v1148q0 54 -5 84q-9 53 -35 92h274q-25 -40 -32.5 -83t-7.5 -93v-116q25 -15 45.5 -21.5t50.5 -6.5q46 0 93 16q112 38 149 38q68 0 110 -32v122q0 54 -5 84q-9 53 -35 92h274z" />
    <glyph glyph-name="I" unicode="I" 
d="M380 0h-272q27 40 35 91q5 30 5 85v1148q0 54 -5 84q-9 53 -35 92h272q-23 -42 -30.5 -85.5t-7.5 -90.5v-1148q0 -52 5 -82q9 -50 33 -94z" />
    <glyph glyph-name="J" unicode="J" horiz-adv-x="892" 
d="M844 1500q-23 -42 -30.5 -85.5t-7.5 -90.5v-572q0 -228 -116 -407q-106 -164 -285 -257q-168 -88 -353 -88v252q31 -14 57.5 -19t56.5 -5q175 0 304 154q142 169 142 436v506q0 54 -5 84q-9 53 -35 92h272z" />
    <glyph glyph-name="K" unicode="K" horiz-adv-x="1040" 
d="M1026 1500q-67 -49 -136 -105q-58 -48 -94 -81l-318 -274q21 -44 109 -229q101 -211 162 -339q78 -163 115 -238q29 -58 72 -121q38 -55 86 -113h-336q1 15 1.5 26t0.5 18q0 54 -10 102t-26 80l-310 644v-694q0 -44 6.5 -84t27.5 -92h-264q23 49 31 100q5 32 5 76v1148
q0 50 -4 76q-7 48 -32 100h264q-21 -52 -27.5 -92t-6.5 -84v-164q53 48 127 117q86 80 107 100t26.5 44t5.5 79h418z" />
    <glyph glyph-name="L" unicode="L" horiz-adv-x="920" 
d="M888 0h-780q27 40 35 91q5 30 5 85v1148q0 54 -5 84q-9 53 -35 92h288q-54 -96 -54 -176v-1130h370q80 0 176 54v-248z" />
    <glyph glyph-name="M" unicode="M" horiz-adv-x="1382" 
d="M1362 0h-312q24 43 34 88.5t10 87.5l-86 1116l-324 -268l-310 262l-86 -1110q0 -45 9.5 -88t34.5 -88h-312q35 51 54.5 96t19.5 82q17 182 38 428t37.5 464.5t16.5 253.5q0 54 -5 84q-9 53 -35 92h334q6 -27 19 -49.5t31 -40.5l154 -146l166 144q38 32 58 92h336
q-27 -40 -33.5 -80.5t-6.5 -95.5q0 -48 14 -256q9 -139 34 -458q21 -276 36 -432q0 -35 20 -81t54 -97z" />
    <glyph glyph-name="N" unicode="N" horiz-adv-x="1126" 
d="M1016 0h-272q27 40 35 91q5 30 5 85v366l-442 616v-982q0 -52 5 -82q9 -50 33 -94h-272q27 40 35 91q5 30 5 85v1148q0 54 -5 84q-9 53 -35 92h312q-10 -27 -10 -56t8 -52.5t22 -43.5q62 -90 130 -185q21 -29 126 -175l88 -122v458q0 54 -5 84q-9 53 -35 92h272
q-23 -42 -30.5 -85.5t-7.5 -90.5v-1148q0 -52 5 -82q9 -50 33 -94z" />
    <glyph glyph-name="O" unicode="O" horiz-adv-x="1340" 
d="M1282 756q0 -348 -169 -552t-457 -204q-273 0 -435.5 197.5t-162.5 528.5q0 379 160.5 577.5t455.5 198.5q286 0 447 -195t161 -551zM1090 772q0 243 -111 395q-116 159 -317 159t-312 -177q-100 -159 -100 -411q0 -232 104 -386q113 -168 308 -168q205 0 322 179
q106 162 106 409z" />
    <glyph glyph-name="P" unicode="P" horiz-adv-x="998" 
d="M968 1360q0 -96 -66 -192l-506 -754v330l44 64q53 76 112 163q86 126 144 213q18 27 26 47q12 28 12 53q0 24 -15.5 31t-60.5 7h-316v-1146q0 -52 5 -82q9 -50 33 -94h-272q27 40 35 91q5 30 5 85v1148q0 54 -5 84q-9 53 -35 92h682q82 0 127 -32q51 -36 51 -108z" />
    <glyph glyph-name="Q" unicode="Q" horiz-adv-x="1130" 
d="M856 648q0 232 -86 453q-92 237 -208 237q-125 0 -211 -251q-77 -224 -77 -475q0 -173 67 -292q79 -140 221 -140q30 0 58 7.5t56 20.5l-244 262l136 118l234 -230q26 61 40 139t14 151zM1086 82l-170 -130l-106 108q-99 -72 -254 -72q-252 0 -377 202q-103 167 -103 434
q0 209 58 411q63 220 169 349q120 146 271 146q142 0 257 -142q104 -128 165 -338q58 -199 58 -402q0 -119 -25 -229.5t-77 -206.5z" />
    <glyph glyph-name="R" unicode="R" horiz-adv-x="1048" 
d="M1028 0h-312q11 21 16.5 45t5.5 49q0 27 -6 55t-14 47q-39 97 -78 198q-9 24 -72 194q-46 125 -48 130l-178 -236v-306q0 -52 5 -82q9 -50 33 -94h-272q27 40 35 91q5 30 5 85v1148q0 54 -5 84q-9 53 -35 92h652q82 0 127 -32q51 -36 51 -108q0 -45 -21 -92
q-17 -38 -57 -94q-35 -51 -107 -149q-39 -53 -87 -117q19 -56 50 -147q68 -198 91 -263q47 -134 99 -276q22 -59 57 -121q19 -33 65 -101zM664 1284q0 24 -15.5 31t-60.5 7h-246v-514q4 6 77 102q52 69 105 139q79 106 102 137q16 23 27 49t11 49z" />
    <glyph glyph-name="S" unicode="S" horiz-adv-x="992" 
d="M950 432q0 -204 -140 -332q-134 -122 -332 -122q-90 0 -164.5 17.5t-151.5 51.5q-51 23 -152 79l158 220q47 -78 132.5 -122t177.5 -44q115 0 184 63q76 70 76 201q0 76 -33 147q-29 64 -84 125q-41 46 -114.5 109.5t-146.5 128.5q-82 78 -118 136q-48 78 -48 162
q0 138 85 211q76 65 199 65q87 0 153 -18t141 -66l-126 -172q-59 41 -70 47q-38 21 -74 21q-104 0 -104 -80q0 -53 93.5 -140t190.5 -174q80 -77 130 -141q65 -84 99 -169q39 -98 39 -204z" />
    <glyph glyph-name="T" unicode="T" horiz-adv-x="960" 
d="M970 1534q0 -93 -72.5 -157.5t-167.5 -64.5h-160v-1136q0 -52 5 -82q9 -50 33 -94h-272q27 40 35 91q5 30 5 85v1142h-182q-80 0 -176 -54v236h766q55 0 109 13q5 1 77 21z" />
    <glyph glyph-name="U" unicode="U" horiz-adv-x="1126" 
d="M1020 -18q-235 52 -464 252q-210 183 -345 426t-135 436q0 65 8 120.5t23 90t21.5 65.5t6.5 60q0 22 -1.5 34t-7.5 34h318q-80 -88 -116 -157q-48 -91 -48 -187q0 -174 82 -353q73 -159 195 -293q115 -126 227 -182v996q0 54 -5 84q-9 53 -35 92h272q-23 -42 -30.5 -85.5
t-7.5 -90.5v-1160q0 -50 7.5 -93t34.5 -89z" />
    <glyph glyph-name="V" unicode="V" horiz-adv-x="928" 
d="M926 1500q-30 -38 -51 -94q-16 -42 -25 -88l-68 -346q-16 -81 -83 -414q-39 -195 -69 -336q-9 -45 -11 -60q-7 -46 -7 -78q0 -49 14 -84h-346q11 21 16.5 49.5t5.5 60.5q0 29 -3.5 56.5t-8.5 55.5q-18 103 -61 326q-51 268 -81 419q-35 175 -70 351q-13 63 -32.5 107.5
t-43.5 74.5h310q-17 -29 -24.5 -70.5t-7.5 -85.5q0 -18 2 -38t4 -32q20 -104 48 -246q61 -306 78 -396q45 -233 52 -286q11 76 50 278.5t79 403.5q27 132 51 246q7 35 7 82q0 43 -6.5 79.5t-22.5 64.5h304z" />
    <glyph glyph-name="W" unicode="W" horiz-adv-x="1314" 
d="M1326 1500q-32 -40 -57.5 -92.5t-32.5 -89.5l-234 -1096q-5 -26 -8.5 -53t-3.5 -59t5.5 -60.5t16.5 -49.5h-312q7 18 10.5 40.5t3.5 47.5q0 34 -5.5 70t-12.5 64l-46 258l-46 -258q-8 -30 -13 -65t-5 -71q0 -50 14 -86h-312q11 21 16.5 49.5t5.5 60.5q0 29 -3.5 56.5
t-8.5 55.5l-220 1096q-8 41 -31.5 89.5t-58.5 92.5h324q-17 -29 -24.5 -70.5t-7.5 -85.5q0 -18 2 -38t4 -33.5t47 -257.5l117 -663l106 512l-134 636h196q4 -28 7 -47q21 -128 27 -183l40 230h192l-140 -638l98 -512q7 55 50 264q11 52 83 401q50 239 54.5 266t4.5 63
q0 43 -7.5 84t-24.5 72h324z" />
    <glyph glyph-name="X" unicode="X" horiz-adv-x="972" 
d="M950 0h-314q8 18 11 38.5t3 47.5t-5 55t-13 47q-15 32 -74 186.5t-72 197.5q-12 -43 -73 -201q-56 -145 -73.5 -185.5t-17.5 -101.5q0 -50 14 -84h-314q41 45 74 104q25 44 42 88l244 612l-198 516q-12 36 -44 87t-72 93h308q-7 -17 -10 -35.5t-3 -39.5q0 -54 19 -97
l107 -292l107 292q13 43 13 99q0 18 -3 37t-10 36h310q-43 -45 -74 -92.5t-44 -87.5l-198 -514l242 -614q17 -45 42 -87q34 -59 76 -105z" />
    <glyph glyph-name="Y" unicode="Y" horiz-adv-x="904" 
d="M930 1500q-36 -16 -106 -77q-42 -37 -92 -87q-31 -32 -99.5 -111t-86.5 -101v-948q0 -52 5 -82q9 -50 33 -94h-272q27 40 35 91q5 30 5 85v938q-14 16 -89 99q-78 86 -95 103q-47 52 -81 86q-63 64 -119 98h366q-2 -9 -2 -26q0 -52 38 -94l74 -84q9 11 35 43.5t41 52.5
q24 30 34 53t10 55h366z" />
    <glyph glyph-name="Z" unicode="Z" horiz-adv-x="950" 
d="M876 1500l-568 -1314h342q64 0 114 12t104 44v-242h-806v86l522 1230h-238q-47 0 -97 -16q-40 -13 -91 -40v240h718z" />
    <glyph glyph-name="bracketleft" unicode="[" horiz-adv-x="654" 
d="M636 -4h-532q27 40 35 91q5 30 5 85v1152q0 54 -5 84q-9 53 -35 92h532v-248q-49 31 -78 41q-38 13 -98 13h-122v-1116h122q66 0 113 20q11 5 63 34v-248z" />
    <glyph glyph-name="backslash" unicode="\" horiz-adv-x="962" 
d="M886 0h-204l-610 1500h208z" />
    <glyph glyph-name="bracketright" unicode="]" horiz-adv-x="654" 
d="M550 -2h-532v248q53 -30 83 -40q41 -14 93 -14h122v1114h-122q-62 0 -98 -12q-25 -8 -78 -42v248h532q-27 -40 -33.5 -80.5t-6.5 -95.5v-1150q0 -54 5 -84q9 -53 35 -92z" />
    <glyph glyph-name="asciicircum" unicode="^" horiz-adv-x="760" 
d="M710 744h-188l-144 158l-140 -158h-188l266 300h130z" />
    <glyph glyph-name="underscore" unicode="_" horiz-adv-x="508" 
d="M508 -358h-508v180h508v-180z" />
    <glyph glyph-name="grave" unicode="`" horiz-adv-x="600" 
d="M506 1202h-184l-232 298h200z" />
    <glyph glyph-name="a" unicode="a" horiz-adv-x="1060" 
d="M950 0h-272q27 40 35 91q5 30 5 85v280h-436q0 -27 -1 -86t-1 -89q0 -98 8 -167t32 -114h-280q29 43 42.5 88t13.5 88v226q0 260 108.5 516.5t294.5 415.5q199 170 389 170h25.5t36.5 -4q-23 -40 -30.5 -81.5t-7.5 -88.5v-1154q0 -52 5 -82q9 -50 33 -94zM718 642v640
q-104 -56 -197 -181q-80 -107 -139 -244q-50 -115 -70 -215h406z" />
    <glyph glyph-name="b" unicode="b" horiz-adv-x="1072" 
d="M1034 816q0 -189 -151 -386q-142 -185 -359.5 -307.5t-415.5 -122.5q27 40 35 91q5 30 5 85v1148q0 54 -5 84q-9 53 -35 92h584q110 0 172 -36q80 -47 80 -150q0 -61 -34 -108.5t-102 -75.5q93 -25 157 -109q69 -90 69 -205zM728 1276q0 22 -18 34t-48 12h-320v-100h320
q30 0 48 15t18 39zM818 792q0 102 -70 173t-176 71h-230v-764q91 20 201 98q118 84 191 188q84 120 84 234z" />
    <glyph glyph-name="c" unicode="c" horiz-adv-x="1048" 
d="M988 -12q-237 57 -437 190q-217 145 -339 344q-136 221 -136 480q0 221 131.5 365.5t330.5 144.5q59 0 111 -3q156 -9 177 -9v-262q-69 46 -126.5 64t-131.5 18q-129 0 -208.5 -90.5t-79.5 -239.5q0 -211 132 -401q114 -164 290 -271q161 -98 286 -98v-232z" />
    <glyph glyph-name="d" unicode="d" horiz-adv-x="1120" 
d="M1044 516q0 -244 -115.5 -380t-304.5 -136h-516q27 40 35 91q5 30 5 85v1158q0 53 -5 84q-9 54 -35 96q210 -20 429 -165t357 -359q150 -233 150 -474zM846 514q0 220 -164 435q-155 203 -340 265v-1018h248q114 0 182 77q74 84 74 241z" />
    <glyph glyph-name="e" unicode="e" horiz-adv-x="1034" 
d="M982 0h-874q27 40 35 91q5 30 5 85v1148q0 54 -5 84q-9 53 -35 92h790v-248q-49 31 -78 41q-38 13 -98 13h-380v-80h500v-194h-500v-838h464q66 0 113 20q11 5 63 34v-248z" />
    <glyph glyph-name="f" unicode="f" horiz-adv-x="948" 
d="M898 1252q-51 31 -78 40q-40 14 -98 14h-380v-80h476v-194h-476v-856q0 -52 13 -91q10 -30 41 -85h-288q27 40 35 91q5 30 5 85v1148q0 54 -5 84q-9 53 -35 92h790v-248z" />
    <glyph glyph-name="g" unicode="g" horiz-adv-x="1146" 
d="M1044 -24q-403 110 -677 396q-291 304 -291 666q0 216 132 342q126 120 330 120h344v-272q-153 92 -298 92q-130 0 -215 -78q-93 -85 -93 -228q0 -205 174 -434q163 -215 354 -298v638q0 54 -5 84q-9 53 -35 92h270q-24 -44 -32 -95q-4 -27 -4 -81v-736q0 -67 23 -144
q7 -25 23 -64z" />
    <glyph glyph-name="h" unicode="h" horiz-adv-x="1132" 
d="M1024 1500q-25 -41 -32.5 -83.5t-7.5 -92.5v-1148q0 -52 5 -82q9 -50 33 -94h-272q27 40 35 91q5 30 5 85v818q-25 27 -52.5 41.5t-57.5 14.5q-38 0 -129 -35q-44 -17 -79 -17q-30 0 -67.5 6.5t-62.5 17.5v-846q0 -52 5 -82q9 -50 33 -94h-272q27 40 35 91q5 30 5 85
v1148q0 54 -5 84q-9 53 -35 92h274q-25 -40 -32.5 -83t-7.5 -93v-116q25 -15 45.5 -21.5t50.5 -6.5q46 0 93 16q112 38 149 38q68 0 110 -32v122q0 54 -5 84q-9 53 -35 92h274z" />
    <glyph glyph-name="i" unicode="i" 
d="M380 0h-272q27 40 35 91q5 30 5 85v1148q0 54 -5 84q-9 53 -35 92h272q-23 -42 -30.5 -85.5t-7.5 -90.5v-1148q0 -52 5 -82q9 -50 33 -94z" />
    <glyph glyph-name="j" unicode="j" horiz-adv-x="892" 
d="M844 1500q-23 -42 -30.5 -85.5t-7.5 -90.5v-572q0 -228 -116 -407q-106 -164 -285 -257q-168 -88 -353 -88v252q31 -14 57.5 -19t56.5 -5q175 0 304 154q142 169 142 436v506q0 54 -5 84q-9 53 -35 92h272z" />
    <glyph glyph-name="k" unicode="k" horiz-adv-x="1040" 
d="M1026 1500q-67 -49 -136 -105q-58 -48 -94 -81l-318 -274q21 -44 109 -229q101 -211 162 -339q78 -163 115 -238q29 -58 72 -121q38 -55 86 -113h-336q1 15 1.5 26t0.5 18q0 54 -10 102t-26 80l-310 644v-694q0 -44 6.5 -84t27.5 -92h-264q23 49 31 100q5 32 5 76v1148
q0 50 -4 76q-7 48 -32 100h264q-21 -52 -27.5 -92t-6.5 -84v-164q53 48 127 117q86 80 107 100t26.5 44t5.5 79h418z" />
    <glyph glyph-name="l" unicode="l" horiz-adv-x="920" 
d="M888 0h-780q27 40 35 91q5 30 5 85v1148q0 54 -5 84q-9 53 -35 92h288q-54 -96 -54 -176v-1130h370q80 0 176 54v-248z" />
    <glyph glyph-name="m" unicode="m" horiz-adv-x="1382" 
d="M1362 0h-312q24 43 34 88.5t10 87.5l-86 1116l-324 -268l-310 262l-86 -1110q0 -45 9.5 -88t34.5 -88h-312q35 51 54.5 96t19.5 82q17 182 38 428t37.5 464.5t16.5 253.5q0 54 -5 84q-9 53 -35 92h334q6 -27 19 -49.5t31 -40.5l154 -146l166 144q38 32 58 92h336
q-27 -40 -33.5 -80.5t-6.5 -95.5q0 -48 14 -256q9 -139 34 -458q21 -276 36 -432q0 -35 20 -81t54 -97z" />
    <glyph glyph-name="n" unicode="n" horiz-adv-x="1126" 
d="M1016 0h-272q27 40 35 91q5 30 5 85v366l-442 616v-982q0 -52 5 -82q9 -50 33 -94h-272q27 40 35 91q5 30 5 85v1148q0 54 -5 84q-9 53 -35 92h312q-10 -27 -10 -56t8 -52.5t22 -43.5q62 -90 130 -185q21 -29 126 -175l88 -122v458q0 54 -5 84q-9 53 -35 92h272
q-23 -42 -30.5 -85.5t-7.5 -90.5v-1148q0 -52 5 -82q9 -50 33 -94z" />
    <glyph glyph-name="o" unicode="o" horiz-adv-x="1340" 
d="M1282 756q0 -348 -169 -552t-457 -204q-273 0 -435.5 197.5t-162.5 528.5q0 379 160.5 577.5t455.5 198.5q286 0 447 -195t161 -551zM1090 772q0 243 -111 395q-116 159 -317 159t-312 -177q-100 -159 -100 -411q0 -232 104 -386q113 -168 308 -168q205 0 322 179
q106 162 106 409z" />
    <glyph glyph-name="p" unicode="p" horiz-adv-x="998" 
d="M968 1360q0 -96 -66 -192l-506 -754v330l44 64q53 76 112 163q86 126 144 213q18 27 26 47q12 28 12 53q0 24 -15.5 31t-60.5 7h-316v-1146q0 -52 5 -82q9 -50 33 -94h-272q27 40 35 91q5 30 5 85v1148q0 54 -5 84q-9 53 -35 92h682q82 0 127 -32q51 -36 51 -108z" />
    <glyph glyph-name="q" unicode="q" horiz-adv-x="1130" 
d="M1086 82l-170 -130l-106 108q-99 -72 -254 -72q-252 0 -377 202q-103 167 -103 434q0 209 58 411q63 220 169 349q120 146 271 146q142 0 257 -142q104 -128 165 -338q58 -199 58 -402q0 -119 -25 -229.5t-77 -206.5zM856 648q0 232 -86 453q-92 237 -208 237
q-125 0 -211 -251q-77 -224 -77 -475q0 -173 67 -292q79 -140 221 -140q30 0 58 7.5t56 20.5l-244 262l136 118l234 -230q26 61 40 139t14 151z" />
    <glyph glyph-name="r" unicode="r" horiz-adv-x="1048" 
d="M1028 0h-312q11 21 16.5 45t5.5 49q0 27 -6 55t-14 47q-39 97 -78 198q-9 24 -72 194q-46 125 -48 130l-178 -236v-306q0 -52 5 -82q9 -50 33 -94h-272q27 40 35 91q5 30 5 85v1148q0 54 -5 84q-9 53 -35 92h652q82 0 127 -32q51 -36 51 -108q0 -45 -21 -92
q-17 -38 -57 -94q-35 -51 -107 -149q-39 -53 -87 -117q19 -56 50 -147q68 -198 91 -263q47 -134 99 -276q22 -59 57 -121q19 -33 65 -101zM664 1284q0 24 -15.5 31t-60.5 7h-246v-514q4 6 77 102q52 69 105 139q79 106 102 137q16 23 27 49t11 49z" />
    <glyph glyph-name="s" unicode="s" horiz-adv-x="1088" 
d="M1004 1286q-42 27 -71 38.5t-65 11.5q-50 0 -81 -43q-27 -38 -27 -85q0 -71 29 -184.5t58 -234.5t29 -229q0 -255 -168.5 -419.5t-419.5 -164.5q-42 0 -97 5.5t-99 16.5v228q65 -30 110 -40t106 -10q163 0 259 120q89 111 89 276q0 108 -28 226.5t-54 225.5
q-30 122 -30 196q0 123 83 209q90 93 233 93q39 0 70.5 -3t73.5 -9v-224z" />
    <glyph glyph-name="t" unicode="t" horiz-adv-x="960" 
d="M970 1534q0 -93 -72.5 -157.5t-167.5 -64.5h-160v-1136q0 -52 5 -82q9 -50 33 -94h-272q27 40 35 91q5 30 5 85v1142h-182q-80 0 -176 -54v236h766q55 0 109 13q5 1 77 21z" />
    <glyph glyph-name="u" unicode="u" horiz-adv-x="1126" 
d="M1020 -18q-235 52 -464 252q-210 183 -345 426t-135 436q0 65 8 120.5t23 90t21.5 65.5t6.5 60q0 22 -1.5 34t-7.5 34h318q-80 -88 -116 -157q-48 -91 -48 -187q0 -174 82 -353q73 -159 195 -293q115 -126 227 -182v996q0 54 -5 84q-9 53 -35 92h272q-23 -42 -30.5 -85.5
t-7.5 -90.5v-1160q0 -50 7.5 -93t34.5 -89z" />
    <glyph glyph-name="v" unicode="v" horiz-adv-x="928" 
d="M926 1500q-30 -38 -51 -94q-16 -42 -25 -88l-68 -346q-16 -81 -83 -414q-39 -195 -69 -336q-9 -45 -11 -60q-7 -46 -7 -78q0 -49 14 -84h-346q11 21 16.5 49.5t5.5 60.5q0 29 -3.5 56.5t-8.5 55.5q-18 103 -61 326q-51 268 -81 419q-35 175 -70 351q-13 63 -32.5 107.5
t-43.5 74.5h310q-17 -29 -24.5 -70.5t-7.5 -85.5q0 -18 2 -38t4 -32q20 -104 48 -246q61 -306 78 -396q45 -233 52 -286q11 76 50 278.5t79 403.5q27 132 51 246q7 35 7 82q0 43 -6.5 79.5t-22.5 64.5h304z" />
    <glyph glyph-name="w" unicode="w" horiz-adv-x="1314" 
d="M1326 1500q-32 -40 -57.5 -92.5t-32.5 -89.5l-234 -1096q-5 -26 -8.5 -53t-3.5 -59t5.5 -60.5t16.5 -49.5h-312q7 18 10.5 40.5t3.5 47.5q0 34 -5.5 70t-12.5 64l-46 258l-46 -258q-8 -30 -13 -65t-5 -71q0 -50 14 -86h-312q11 21 16.5 49.5t5.5 60.5q0 29 -3.5 56.5
t-8.5 55.5l-220 1096q-8 41 -31.5 89.5t-58.5 92.5h324q-17 -29 -24.5 -70.5t-7.5 -85.5q0 -18 2 -38t4 -33.5t47 -257.5l117 -663l106 512l-134 636h196q4 -28 7 -47q21 -128 27 -183l40 230h192l-140 -638l98 -512q7 55 50 264q11 52 83 401q50 239 54.5 266t4.5 63
q0 43 -7.5 84t-24.5 72h324z" />
    <glyph glyph-name="x" unicode="x" horiz-adv-x="972" 
d="M950 0h-314q8 18 11 38.5t3 47.5t-5 55t-13 47q-15 32 -74 186.5t-72 197.5q-12 -43 -73 -201q-56 -145 -73.5 -185.5t-17.5 -101.5q0 -50 14 -84h-314q41 45 74 104q25 44 42 88l244 612l-198 516q-12 36 -44 87t-72 93h308q-7 -17 -10 -35.5t-3 -39.5q0 -54 19 -97
l107 -292l107 292q13 43 13 99q0 18 -3 37t-10 36h310q-43 -45 -74 -92.5t-44 -87.5l-198 -514l242 -614q17 -45 42 -87q34 -59 76 -105z" />
    <glyph glyph-name="y" unicode="y" horiz-adv-x="904" 
d="M930 1500q-36 -16 -106 -77q-42 -37 -92 -87q-31 -32 -99.5 -111t-86.5 -101v-948q0 -52 5 -82q9 -50 33 -94h-272q27 40 35 91q5 30 5 85v938q-14 16 -89 99q-78 86 -95 103q-47 52 -81 86q-63 64 -119 98h366q-2 -9 -2 -26q0 -52 38 -94l74 -84q9 11 35 43.5t41 52.5
q24 30 34 53t10 55h366z" />
    <glyph glyph-name="z" unicode="z" horiz-adv-x="950" 
d="M876 1500l-568 -1314h342q64 0 114 12t104 44v-242h-806v86l522 1230h-238q-47 0 -97 -16q-40 -13 -91 -40v240h718z" />
    <glyph glyph-name="braceleft" unicode="{" horiz-adv-x="578" 
d="M568 0h-290q-82 0 -127 32q-51 36 -51 108q0 33 6 113t13 168.5t7 116.5q0 57 -12 111.5t-42 100.5q27 44 40.5 100.5t13.5 111.5q0 40 -13 204t-13 194q0 71 48 105.5t130 34.5h290q-16 -37 -28 -91t-12 -87h-150q-38 0 -48 -2q-28 -6 -28 -36q0 -17 10 -170t10 -170
q0 -65 -13 -122t-27 -72q12 -14 26 -73t14 -121q0 -16 -10 -169t-10 -171q0 -24 15.5 -31t60.5 -7h150q0 -35 11 -85.5t29 -92.5z" />
    <glyph glyph-name="bar" unicode="|" 
d="M344 -100h-196v1700h196v-1700z" />
    <glyph glyph-name="braceright" unicode="}" horiz-adv-x="578" 
d="M506 750q-29 -46 -41.5 -99.5t-12.5 -112.5q0 -40 13 -204t13 -194q0 -71 -50 -107q-46 -33 -128 -33h-290q16 37 28 91t12 87h150q38 0 48 2q28 6 28 36q0 17 -10 170t-10 170q0 65 13.5 122t26.5 72q-12 14 -26 73t-14 121q0 16 10 169t10 171q0 24 -15.5 31t-60.5 7
h-150q0 35 -11 85.5t-29 92.5h290q82 0 127 -32q51 -36 51 -108q0 -33 -6.5 -113.5t-13 -168.5t-6.5 -116q0 -57 13 -111.5t41 -100.5z" />
    <glyph glyph-name="asciitilde" unicode="~" horiz-adv-x="660" 
d="M600 736q-59 56 -132 56q-52 0 -108 -16q-134 -38 -168 -38q-84 0 -132 32v208q59 -56 132 -56q43 0 165 36q61 18 111 18q84 0 132 -32v-208z" />
    <glyph glyph-name="Adieresis" unicode="&#xc4;" horiz-adv-x="1060" 
d="M950 0h-272q27 40 35 91q5 30 5 85v280h-436q0 -27 -1 -86t-1 -89q0 -98 8 -167t32 -114h-280q29 43 42.5 88t13.5 88v226q0 260 108.5 516.5t294.5 415.5q199 170 389 170h25.5t36.5 -4q-23 -40 -30.5 -81.5t-7.5 -88.5v-1154q0 -52 5 -82q9 -50 33 -94zM718 642v640
q-104 -56 -197 -181q-80 -107 -139 -244q-50 -115 -70 -215h406zM994 1602h-192v192h192v-192zM666 1602h-192v192h192v-192z" />
    <glyph glyph-name="Aring" unicode="&#xc5;" horiz-adv-x="1060" 
d="M964 1774q0 -71 -51.5 -122.5t-122.5 -51.5t-122.5 51.5t-51.5 122.5t51.5 122.5t122.5 51.5t122.5 -51.5t51.5 -122.5zM830 1774q0 17 -10.5 28.5t-27.5 11.5t-29.5 -11.5t-12.5 -28.5t11.5 -28.5t28.5 -11.5t28.5 11.5t11.5 28.5zM950 0h-272q27 40 35 91q5 30 5 85
v280h-436q0 -27 -1 -86t-1 -89q0 -98 8 -167t32 -114h-280q29 43 42.5 88t13.5 88v226q0 260 108.5 516.5t294.5 415.5q199 170 389 170h25.5t36.5 -4q-23 -40 -30.5 -81.5t-7.5 -88.5v-1154q0 -52 5 -82q9 -50 33 -94zM718 642v640q-104 -56 -197 -181q-80 -107 -139 -244
q-50 -115 -70 -215h406z" />
    <glyph glyph-name="Ccedilla" unicode="&#xc7;" horiz-adv-x="1048" 
d="M988 -12q-115 25 -232 78v-70q6 1 14.5 1.5t11.5 0.5q60 0 104 -45t44 -111q0 -79 -64 -129q-60 -47 -142 -47q-25 0 -65.5 8.5t-58.5 19.5l36 124q20 -13 43 -19.5t45 -6.5q28 0 46 13.5t18 38.5q0 52 -68 52q-19 0 -35.5 -2t-40.5 -6v232q-255 144 -402 356
q-166 238 -166 526q0 221 131.5 365.5t330.5 144.5q59 0 111 -3q156 -9 177 -9v-262q-69 46 -126.5 64t-131.5 18q-129 0 -208.5 -90.5t-79.5 -239.5q0 -211 132 -401q114 -164 290 -271q161 -98 286 -98v-232z" />
    <glyph glyph-name="Eacute" unicode="&#xc9;" horiz-adv-x="1034" 
d="M982 0h-874q27 40 35 91q5 30 5 85v1148q0 54 -5 84q-9 53 -35 92h790v-248q-49 31 -78 41q-38 13 -98 13h-380v-80h500v-194h-500v-838h464q66 0 113 20q11 5 63 34v-248zM748 1902l-232 -298h-184l216 298h200z" />
    <glyph glyph-name="Ntilde" unicode="&#xd1;" horiz-adv-x="1126" 
d="M1016 0h-272q27 40 35 91q5 30 5 85v366l-442 616v-982q0 -52 5 -82q9 -50 33 -94h-272q27 40 35 91q5 30 5 85v1148q0 54 -5 84q-9 53 -35 92h312q-10 -27 -10 -56t8 -52.5t22 -43.5q62 -90 130 -185q21 -29 126 -175l88 -122v458q0 54 -5 84q-9 53 -35 92h272
q-23 -42 -30.5 -85.5t-7.5 -90.5v-1148q0 -52 5 -82q9 -50 33 -94zM839 1635q-48 -32 -132 -32q-59 0 -142 27t-134 27q-35 0 -69.5 -15t-62.5 -41v188q48 32 132 32q47 0 102 -16q131 -38 174 -38q35 0 69.5 15t62.5 41v-188z" />
    <glyph glyph-name="Odieresis" unicode="&#xd6;" horiz-adv-x="1340" 
d="M1282 756q0 -348 -169 -552t-457 -204q-273 0 -435.5 197.5t-162.5 528.5q0 379 160.5 577.5t455.5 198.5q286 0 447 -195t161 -551zM1090 772q0 243 -111 395q-116 159 -317 159t-312 -177q-100 -159 -100 -411q0 -232 104 -386q113 -168 308 -168q205 0 322 179
q106 162 106 409zM942 1601h-192v192h192v-192zM614 1601h-192v192h192v-192z" />
    <glyph glyph-name="Udieresis" unicode="&#xdc;" horiz-adv-x="1126" 
d="M1020 -18q-235 52 -464 252q-210 183 -345 426t-135 436q0 65 8 120.5t23 90t21.5 65.5t6.5 60q0 22 -1.5 34t-7.5 34h318q-80 -88 -116 -157q-48 -91 -48 -187q0 -174 82 -353q73 -159 195 -293q115 -126 227 -182v996q0 54 -5 84q-9 53 -35 92h272q-23 -42 -30.5 -85.5
t-7.5 -90.5v-1160q0 -50 7.5 -93t34.5 -89zM863 1601h-192v192h192v-192zM535 1601h-192v192h192v-192z" />
    <glyph glyph-name="aacute" unicode="&#xe1;" horiz-adv-x="1060" 
d="M950 0h-272q27 40 35 91q5 30 5 85v280h-436q0 -27 -1 -86t-1 -89q0 -98 8 -167t32 -114h-280q29 43 42.5 88t13.5 88v226q0 260 108.5 516.5t294.5 415.5q199 170 389 170h25.5t36.5 -4q-23 -40 -30.5 -81.5t-7.5 -88.5v-1154q0 -52 5 -82q9 -50 33 -94zM718 642v640
q-104 -56 -197 -181q-80 -107 -139 -244q-50 -115 -70 -215h406zM867 1904l-232 -298h-184l216 298h200z" />
    <glyph glyph-name="agrave" unicode="&#xe0;" horiz-adv-x="1060" 
d="M950 0h-272q27 40 35 91q5 30 5 85v280h-436q0 -27 -1 -86t-1 -89q0 -98 8 -167t32 -114h-280q29 43 42.5 88t13.5 88v226q0 260 108.5 516.5t294.5 415.5q199 170 389 170h25.5t36.5 -4q-23 -40 -30.5 -81.5t-7.5 -88.5v-1154q0 -52 5 -82q9 -50 33 -94zM718 642v640
q-104 -56 -197 -181q-80 -107 -139 -244q-50 -115 -70 -215h406zM894 1601h-184l-232 298h200z" />
    <glyph glyph-name="acircumflex" unicode="&#xe2;" horiz-adv-x="1060" 
d="M950 0h-272q27 40 35 91q5 30 5 85v280h-436q0 -27 -1 -86t-1 -89q0 -98 8 -167t32 -114h-280q29 43 42.5 88t13.5 88v226q0 260 108.5 516.5t294.5 415.5q199 170 389 170h25.5t36.5 -4q-23 -40 -30.5 -81.5t-7.5 -88.5v-1154q0 -52 5 -82q9 -50 33 -94zM718 642v640
q-104 -56 -197 -181q-80 -107 -139 -244q-50 -115 -70 -215h406zM1051 1604h-184l-116 144l-116 -144h-184l220 298h160z" />
    <glyph glyph-name="adieresis" unicode="&#xe4;" horiz-adv-x="1060" 
d="M950 0h-272q27 40 35 91q5 30 5 85v280h-436q0 -27 -1 -86t-1 -89q0 -98 8 -167t32 -114h-280q29 43 42.5 88t13.5 88v226q0 260 108.5 516.5t294.5 415.5q199 170 389 170h25.5t36.5 -4q-23 -40 -30.5 -81.5t-7.5 -88.5v-1154q0 -52 5 -82q9 -50 33 -94zM718 642v640
q-104 -56 -197 -181q-80 -107 -139 -244q-50 -115 -70 -215h406zM994 1602h-192v192h192v-192zM666 1602h-192v192h192v-192z" />
    <glyph glyph-name="atilde" unicode="&#xe3;" horiz-adv-x="1060" 
d="M950 0h-272q27 40 35 91q5 30 5 85v280h-436q0 -27 -1 -86t-1 -89q0 -98 8 -167t32 -114h-280q29 43 42.5 88t13.5 88v226q0 260 108.5 516.5t294.5 415.5q199 170 389 170h25.5t36.5 -4q-23 -40 -30.5 -81.5t-7.5 -88.5v-1154q0 -52 5 -82q9 -50 33 -94zM718 642v640
q-104 -56 -197 -181q-80 -107 -139 -244q-50 -115 -70 -215h406zM994 1633q-48 -32 -132 -32q-59 0 -142 27t-134 27q-35 0 -69.5 -15t-62.5 -41v188q48 32 132 32q47 0 102 -16q131 -38 174 -38q35 0 69.5 15t62.5 41v-188z" />
    <glyph glyph-name="aring" unicode="&#xe5;" horiz-adv-x="1060" 
d="M964 1774q0 -71 -51.5 -122.5t-122.5 -51.5t-122.5 51.5t-51.5 122.5t51.5 122.5t122.5 51.5t122.5 -51.5t51.5 -122.5zM830 1774q0 17 -10.5 28.5t-27.5 11.5t-29.5 -11.5t-12.5 -28.5t11.5 -28.5t28.5 -11.5t28.5 11.5t11.5 28.5zM950 0h-272q27 40 35 91q5 30 5 85
v280h-436q0 -27 -1 -86t-1 -89q0 -98 8 -167t32 -114h-280q29 43 42.5 88t13.5 88v226q0 260 108.5 516.5t294.5 415.5q199 170 389 170h25.5t36.5 -4q-23 -40 -30.5 -81.5t-7.5 -88.5v-1154q0 -52 5 -82q9 -50 33 -94zM718 642v640q-104 -56 -197 -181q-80 -107 -139 -244
q-50 -115 -70 -215h406z" />
    <glyph glyph-name="ccedilla" unicode="&#xe7;" horiz-adv-x="1048" 
d="M988 -12q-115 25 -232 78v-70q6 1 14.5 1.5t11.5 0.5q60 0 104 -45t44 -111q0 -79 -64 -129q-60 -47 -142 -47q-25 0 -65.5 8.5t-58.5 19.5l36 124q20 -13 43 -19.5t45 -6.5q28 0 46 13.5t18 38.5q0 52 -68 52q-19 0 -35.5 -2t-40.5 -6v232q-255 144 -402 356
q-166 238 -166 526q0 221 131.5 365.5t330.5 144.5q59 0 111 -3q156 -9 177 -9v-262q-69 46 -126.5 64t-131.5 18q-129 0 -208.5 -90.5t-79.5 -239.5q0 -211 132 -401q114 -164 290 -271q161 -98 286 -98v-232z" />
    <glyph glyph-name="eacute" unicode="&#xe9;" horiz-adv-x="1034" 
d="M982 0h-874q27 40 35 91q5 30 5 85v1148q0 54 -5 84q-9 53 -35 92h790v-248q-49 31 -78 41q-38 13 -98 13h-380v-80h500v-194h-500v-838h464q66 0 113 20q11 5 63 34v-248zM748 1902l-232 -298h-184l216 298h200z" />
    <glyph glyph-name="egrave" unicode="&#xe8;" horiz-adv-x="1034" 
d="M982 0h-874q27 40 35 91q5 30 5 85v1148q0 54 -5 84q-9 53 -35 92h790v-248q-49 31 -78 41q-38 13 -98 13h-380v-80h500v-194h-500v-838h464q66 0 113 20q11 5 63 34v-248zM729 1606h-184l-232 298h200z" />
    <glyph glyph-name="ecircumflex" unicode="&#xea;" horiz-adv-x="1034" 
d="M982 0h-874q27 40 35 91q5 30 5 85v1148q0 54 -5 84q-9 53 -35 92h790v-248q-49 31 -78 41q-38 13 -98 13h-380v-80h500v-194h-500v-838h464q66 0 113 20q11 5 63 34v-248zM820 1605h-184l-116 144l-116 -144h-184l220 298h160z" />
    <glyph glyph-name="edieresis" unicode="&#xeb;" horiz-adv-x="1034" 
d="M982 0h-874q27 40 35 91q5 30 5 85v1148q0 54 -5 84q-9 53 -35 92h790v-248q-49 31 -78 41q-38 13 -98 13h-380v-80h500v-194h-500v-838h464q66 0 113 20q11 5 63 34v-248zM792 1601h-192v192h192v-192zM464 1601h-192v192h192v-192z" />
    <glyph glyph-name="iacute" unicode="&#xed;" 
d="M380 0h-272q27 40 35 91q5 30 5 85v1148q0 54 -5 84q-9 53 -35 92h272q-23 -42 -30.5 -85.5t-7.5 -90.5v-1148q0 -52 5 -82q9 -50 33 -94zM519 1902l-232 -298h-184l216 298h200z" />
    <glyph glyph-name="igrave" unicode="&#xec;" 
d="M380 0h-272q27 40 35 91q5 30 5 85v1148q0 54 -5 84q-9 53 -35 92h272q-23 -42 -30.5 -85.5t-7.5 -90.5v-1148q0 -52 5 -82q9 -50 33 -94zM370 1604h-184l-232 298h200z" />
    <glyph glyph-name="icircumflex" unicode="&#xee;" 
d="M380 0h-272q27 40 35 91q5 30 5 85v1148q0 54 -5 84q-9 53 -35 92h272q-23 -42 -30.5 -85.5t-7.5 -90.5v-1148q0 -52 5 -82q9 -50 33 -94zM545 1606h-184l-116 144l-116 -144h-184l220 298h160z" />
    <glyph glyph-name="idieresis" unicode="&#xef;" 
d="M380 0h-272q27 40 35 91q5 30 5 85v1148q0 54 -5 84q-9 53 -35 92h272q-23 -42 -30.5 -85.5t-7.5 -90.5v-1148q0 -52 5 -82q9 -50 33 -94zM504 1587h-192v192h192v-192zM176 1587h-192v192h192v-192z" />
    <glyph glyph-name="ntilde" unicode="&#xf1;" horiz-adv-x="1126" 
d="M1016 0h-272q27 40 35 91q5 30 5 85v366l-442 616v-982q0 -52 5 -82q9 -50 33 -94h-272q27 40 35 91q5 30 5 85v1148q0 54 -5 84q-9 53 -35 92h312q-10 -27 -10 -56t8 -52.5t22 -43.5q62 -90 130 -185q21 -29 126 -175l88 -122v458q0 54 -5 84q-9 53 -35 92h272
q-23 -42 -30.5 -85.5t-7.5 -90.5v-1148q0 -52 5 -82q9 -50 33 -94zM839 1635q-48 -32 -132 -32q-59 0 -142 27t-134 27q-35 0 -69.5 -15t-62.5 -41v188q48 32 132 32q47 0 102 -16q131 -38 174 -38q35 0 69.5 15t62.5 41v-188z" />
    <glyph glyph-name="oacute" unicode="&#xf3;" horiz-adv-x="1340" 
d="M1282 756q0 -348 -169 -552t-457 -204q-273 0 -435.5 197.5t-162.5 528.5q0 379 160.5 577.5t455.5 198.5q286 0 447 -195t161 -551zM1090 772q0 243 -111 395q-116 159 -317 159t-312 -177q-100 -159 -100 -411q0 -232 104 -386q113 -168 308 -168q205 0 322 179
q106 162 106 409zM875 1902l-232 -298h-184l216 298h200z" />
    <glyph glyph-name="ograve" unicode="&#xf2;" horiz-adv-x="1340" 
d="M1282 756q0 -348 -169 -552t-457 -204q-273 0 -435.5 197.5t-162.5 528.5q0 379 160.5 577.5t455.5 198.5q286 0 447 -195t161 -551zM1090 772q0 243 -111 395q-116 159 -317 159t-312 -177q-100 -159 -100 -411q0 -232 104 -386q113 -168 308 -168q205 0 322 179
q106 162 106 409zM832 1606h-184l-232 298h200z" />
    <glyph glyph-name="ocircumflex" unicode="&#xf4;" horiz-adv-x="1340" 
d="M1282 756q0 -348 -169 -552t-457 -204q-273 0 -435.5 197.5t-162.5 528.5q0 379 160.5 577.5t455.5 198.5q286 0 447 -195t161 -551zM1090 772q0 243 -111 395q-116 159 -317 159t-312 -177q-100 -159 -100 -411q0 -232 104 -386q113 -168 308 -168q205 0 322 179
q106 162 106 409zM977 1606h-184l-116 144l-116 -144h-184l220 298h160z" />
    <glyph glyph-name="odieresis" unicode="&#xf6;" horiz-adv-x="1340" 
d="M1282 756q0 -348 -169 -552t-457 -204q-273 0 -435.5 197.5t-162.5 528.5q0 379 160.5 577.5t455.5 198.5q286 0 447 -195t161 -551zM1090 772q0 243 -111 395q-116 159 -317 159t-312 -177q-100 -159 -100 -411q0 -232 104 -386q113 -168 308 -168q205 0 322 179
q106 162 106 409zM942 1601h-192v192h192v-192zM614 1601h-192v192h192v-192z" />
    <glyph glyph-name="otilde" unicode="&#xf5;" horiz-adv-x="1340" 
d="M1282 756q0 -348 -169 -552t-457 -204q-273 0 -435.5 197.5t-162.5 528.5q0 379 160.5 577.5t455.5 198.5q286 0 447 -195t161 -551zM1090 772q0 243 -111 395q-116 159 -317 159t-312 -177q-100 -159 -100 -411q0 -232 104 -386q113 -168 308 -168q205 0 322 179
q106 162 106 409zM925 1635q-48 -32 -132 -32q-59 0 -142 27t-134 27q-35 0 -69.5 -15t-62.5 -41v188q48 32 132 32q47 0 102 -16q131 -38 174 -38q35 0 69.5 15t62.5 41v-188z" />
    <glyph glyph-name="uacute" unicode="&#xfa;" horiz-adv-x="1126" 
d="M1020 -18q-235 52 -464 252q-210 183 -345 426t-135 436q0 65 8 120.5t23 90t21.5 65.5t6.5 60q0 22 -1.5 34t-7.5 34h318q-80 -88 -116 -157q-48 -91 -48 -187q0 -174 82 -353q73 -159 195 -293q115 -126 227 -182v996q0 54 -5 84q-9 53 -35 92h272q-23 -42 -30.5 -85.5
t-7.5 -90.5v-1160q0 -50 7.5 -93t34.5 -89zM812 1904l-232 -298h-184l216 298h200z" />
    <glyph glyph-name="ugrave" unicode="&#xf9;" horiz-adv-x="1126" 
d="M1020 -18q-235 52 -464 252q-210 183 -345 426t-135 436q0 65 8 120.5t23 90t21.5 65.5t6.5 60q0 22 -1.5 34t-7.5 34h318q-80 -88 -116 -157q-48 -91 -48 -187q0 -174 82 -353q73 -159 195 -293q115 -126 227 -182v996q0 54 -5 84q-9 53 -35 92h272q-23 -42 -30.5 -85.5
t-7.5 -90.5v-1160q0 -50 7.5 -93t34.5 -89zM732 1606h-184l-232 298h200z" />
    <glyph glyph-name="ucircumflex" unicode="&#xfb;" horiz-adv-x="1126" 
d="M1020 -18q-235 52 -464 252q-210 183 -345 426t-135 436q0 65 8 120.5t23 90t21.5 65.5t6.5 60q0 22 -1.5 34t-7.5 34h318q-80 -88 -116 -157q-48 -91 -48 -187q0 -174 82 -353q73 -159 195 -293q115 -126 227 -182v996q0 54 -5 84q-9 53 -35 92h272q-23 -42 -30.5 -85.5
t-7.5 -90.5v-1160q0 -50 7.5 -93t34.5 -89zM886 1605h-184l-116 144l-116 -144h-184l220 298h160z" />
    <glyph glyph-name="udieresis" unicode="&#xfc;" horiz-adv-x="1126" 
d="M1020 -18q-235 52 -464 252q-210 183 -345 426t-135 436q0 65 8 120.5t23 90t21.5 65.5t6.5 60q0 22 -1.5 34t-7.5 34h318q-80 -88 -116 -157q-48 -91 -48 -187q0 -174 82 -353q73 -159 195 -293q115 -126 227 -182v996q0 54 -5 84q-9 53 -35 92h272q-23 -42 -30.5 -85.5
t-7.5 -90.5v-1160q0 -50 7.5 -93t34.5 -89zM863 1601h-192v192h192v-192zM535 1601h-192v192h192v-192z" />
    <glyph glyph-name="dagger" unicode="&#x2020;" horiz-adv-x="790" 
d="M732 980h-232l-20 -982h-168l-18 982h-234v190h230l-10 270h232l-10 -270h230v-190z" />
    <glyph glyph-name="degree" unicode="&#xb0;" horiz-adv-x="524" 
d="M444 1172q0 -75 -53.5 -128.5t-128.5 -53.5t-128.5 53.5t-53.5 128.5t53.5 128.5t128.5 53.5t128.5 -53.5t53.5 -128.5zM320 1172q0 23 -16.5 40.5t-39.5 17.5t-41.5 -17.5t-18.5 -40.5q0 -24 17 -41t41 -17t41 17t17 41z" />
    <glyph glyph-name="cent" unicode="&#xa2;" horiz-adv-x="678" 
d="M664 330q-40 8 -44 9q-18 4 -44 15v-110h-196v198q-148 90 -234 223q-96 148 -96 325q0 118 55 201t151 115v194h196v-180l108 -6v-216q-47 30 -83.5 42t-84.5 12q-166 0 -166 -170q0 -130 83 -244q70 -96 181 -160q101 -58 174 -58v-190z" />
    <glyph glyph-name="sterling" unicode="&#xa3;" horiz-adv-x="876" 
d="M802 1410l-100 -198q-35 42 -67 64q-59 40 -131 40q-88 0 -128 -80q-36 -72 -36 -216v-34h410v-186h-410v-46h410v-186h-410v-374h410v-194h-608v1056q0 208 92 326t258 118q94 0 162.5 -19t147.5 -71z" />
    <glyph glyph-name="section" unicode="&#xa7;" horiz-adv-x="1048" 
d="M964 1298q-37 24 -65 31t-71 7q-52 0 -82 -43q-26 -37 -26 -85q0 -69 29 -183t58 -236t29 -229q0 -255 -168.5 -419.5t-419.5 -164.5q-42 0 -97 5.5t-99 16.5v228q55 -24 81 -34q44 -16 63 -16q104 0 127 46q19 38 19 212q0 61 -8 114t-25 124q-2 10 -39 148
q-22 81 -31 140t-9 122q0 123 83 209q90 93 233 93h4q41 63 107 99q72 39 163 39q39 0 70.5 -3t73.5 -9v-212zM616 572q0 103 -27.5 215t-53.5 213q-29 115 -29 186q-29 -17 -44.5 -49.5t-15.5 -66.5q0 -67 29 -181.5t58 -237t29 -229.5q0 -16 -4 -80q58 101 58 230z" />
    <glyph glyph-name="bullet" unicode="&#x2022;" horiz-adv-x="728" 
d="M628 750q0 -123 -77.5 -209.5t-186.5 -86.5t-186.5 86.5t-77.5 209.5q0 122 78 209t186 87q110 0 187 -86t77 -210z" />
    <glyph glyph-name="paragraph" unicode="&#xb6;" horiz-adv-x="996" 
d="M938 1500q-27 -40 -33.5 -80.5t-6.5 -95.5v-1328h-186v1326h-68v-1326h-188v678l-336 494q-66 97 -66 192q0 71 48 105.5t130 34.5h706zM456 999v323h-104q-42 0 -54 -7t-12 -31q0 -23 13 -50.5t29 -49.5z" />
    <glyph glyph-name="registered" unicode="&#xae;" horiz-adv-x="1312" 
d="M1252 904q0 -246 -175 -421t-421 -175t-421 175t-175 421t175 421t421 175t421 -175t175 -421zM1228 904q0 236 -168 404t-404 168t-404 -168t-168 -404t168 -404t404 -168t404 168t168 404zM988 526h-230q6 9 8 25t2 19q0 15 -2.5 28.5t-7.5 25.5q-22 60 -48 122l-38 90
l-90 -110v-112q0 -23 4 -44.5t16 -43.5h-212q10 15 15 35t5 53v614q0 31 -3 49t-17 39h464q38 0 63 -26t25 -64q0 -23 -10.5 -54t-27 -55.5t-57.5 -78.5q-24 -31 -47 -62q33 -84 74 -195q33 -90 52 -141q9 -24 28 -58q15 -27 34 -56zM730 1156q0 14 -28 14h-120v-220
l128 168q10 13 15 21.5t5 16.5z" />
    <glyph glyph-name="copyright" unicode="&#xa9;" horiz-adv-x="1312" 
d="M1252 904q0 -246 -175 -421t-421 -175t-421 175t-175 421t175 421t421 175t421 -175t175 -421zM1228 904q0 234 -168 403t-404 169t-404 -168t-168 -404t168 -404t404 -168t404 168t168 404zM872 466q-234 57 -379 195q-159 151 -159 357q0 126 79.5 212t210.5 86
q21 0 81 -4t87 -4v-266q-57 32 -89 43t-65 11q-39 0 -63.5 -22.5t-24.5 -61.5q0 -121 116 -217q105 -87 206 -87v-242z" />
    <glyph glyph-name="trademark" unicode="&#x2122;" horiz-adv-x="1372" 
d="M948 1406l74 64q13 11 19.5 17.5t8.5 12.5h206q-9 -14 -12.5 -46t-3.5 -67v-22v-13q0 -34 17 -235q10 -118 25 -277q0 -19 9.5 -40.5t26.5 -49.5h-230q12 22 17 43.5t5 44.5l-36 446l-126 -102l-126 102l-36 -446q0 -30 5.5 -49t16.5 -39h-230q16 25 26 49t10 41
q1 12 15 168q11 118 19 221.5t8 122.5v35q0 43 -2.5 70t-13.5 43h206q1 -4 10 -13t18 -17zM622 1520q0 -70 -34 -121t-86 -51h-80v-510q0 -23 4 -44.5t16 -43.5h-212q10 15 15 35t5 53v510h-92q-18 0 -39.5 -7.5t-48.5 -22.5v182h460q35 0 92 20z" />
    <glyph glyph-name="acute" unicode="&#xb4;" horiz-adv-x="600" 
d="M514 1500l-232 -298h-184l216 298h200z" />
    <glyph glyph-name="dieresis" unicode="&#xa8;" horiz-adv-x="600" 
d="M560 1308h-192v192h192v-192zM232 1308h-192v192h192v-192z" />
    <glyph glyph-name="AE" unicode="&#xc6;" horiz-adv-x="1628" 
d="M1576 0h-898q27 40 35 91q5 30 5 85v280h-436q0 -27 -1 -86t-1 -89q0 -98 8 -167t32 -114h-280q29 43 42.5 88t13.5 88v226q0 334 175.5 650t420.5 410q-4 10 -8 18q-7 13 -10 20h818v-248q-49 31 -78 41q-38 13 -98 13h-380v-80h500v-194h-500v-838h464q66 0 113 20
q11 5 63 34v-248zM718 642v638q-109 -61 -203 -189q-77 -105 -136 -243q-48 -112 -67 -206h406z" />
    <glyph glyph-name="AE" unicode="&#xe6;" horiz-adv-x="1628" 
d="M1576 0h-898q27 40 35 91q5 30 5 85v280h-436q0 -27 -1 -86t-1 -89q0 -98 8 -167t32 -114h-280q29 43 42.5 88t13.5 88v226q0 334 175.5 650t420.5 410q-4 10 -8 18q-7 13 -10 20h818v-248q-49 31 -78 41q-38 13 -98 13h-380v-80h500v-194h-500v-838h464q66 0 113 20
q11 5 63 34v-248zM718 642v638q-109 -61 -203 -189q-77 -105 -136 -243q-48 -112 -67 -206h406z" />
    <glyph glyph-name="Oslash" unicode="&#xd8;" horiz-adv-x="1336" 
d="M1288 1500l-154 -230q73 -100 111.5 -235t38.5 -295q0 -340 -165 -540t-451 -200q-96 0 -176.5 23t-151.5 69l-62 -92h-212l142 212q-75 96 -115.5 231.5t-40.5 296.5q0 342 165.5 551t450.5 209q97 0 181.5 -25.5t154.5 -76.5l68 102h216zM896 1236q-95 80 -228 80
q-197 0 -313 -173q-107 -160 -107 -403q0 -205 80 -350zM1088 740q0 199 -76 348l-564 -836q47 -33 100.5 -50.5t117.5 -17.5q198 0 314 163q108 152 108 393z" />
    <glyph glyph-name="Oslash" unicode="&#xf8;" horiz-adv-x="1336" 
d="M1288 1500l-154 -230q73 -100 111.5 -235t38.5 -295q0 -340 -165 -540t-451 -200q-96 0 -176.5 23t-151.5 69l-62 -92h-212l142 212q-75 96 -115.5 231.5t-40.5 296.5q0 342 165.5 551t450.5 209q97 0 181.5 -25.5t154.5 -76.5l68 102h216zM896 1236q-95 80 -228 80
q-197 0 -313 -173q-107 -160 -107 -403q0 -205 80 -350zM1088 740q0 199 -76 348l-564 -836q47 -33 100.5 -50.5t117.5 -17.5q198 0 314 163q108 152 108 393z" />
    <glyph glyph-name="yen" unicode="&#xa5;" horiz-adv-x="904" 
d="M930 1500q-36 -16 -106 -77q-42 -37 -92 -87q-14 -15 -71.5 -80.5t-114.5 -131.5v-138h204v-186h-204v-50h204v-186h-204v-388q0 -52 5 -82q9 -50 33 -94h-272q27 40 35 91q5 30 5 85v388h-206v186h206v50h-206v186h206v128q-14 16 -89 99q-78 86 -95 103q-47 52 -81 86
q-63 64 -119 98h366q-2 -9 -2 -26q0 -52 38 -94l74 -84q9 11 35 43.5t41 52.5q24 30 34 53t10 55h366z" />
    <glyph glyph-name="questiondown" unicode="&#xbf;" horiz-adv-x="990" 
d="M755 1398q0 -42 -30 -72t-72 -30t-72 30t-30 72t30 71t72 29t72 -29t30 -71zM915 266q-51 -115 -146 -183q-115 -83 -280 -83q-157 0 -272 98q-126 107 -126 276q0 95 24 164q20 59 65 114q29 36 95 98l198 192q73 71 81 151q3 29 3 147h192v-148q0 -87 -43 -157
q-32 -52 -129 -149q-102 -102 -152 -156q-73 -79 -102 -126q-36 -58 -36 -108q0 -76 62 -138t150 -62q68 0 133 42q70 46 111 124z" />
    <glyph glyph-name="exclamdown" unicode="&#xa1;" 
d="M340 1308h-194v192h194v-192zM380 0h-272q0 57 11.5 286.5t17.5 404.5q11 312 11 551h192q0 -266 10 -550q6 -178 18 -416.5t12 -275.5z" />
    <glyph glyph-name="guillemotleft" unicode="&#xab;" horiz-adv-x="800" 
d="M732 450l-300 194v132l300 192v-180l-116 -80l116 -80v-178zM386 450l-300 194v132l300 192v-180l-116 -80l116 -80v-178z" />
    <glyph glyph-name="guillemotright" unicode="&#xbb;" horiz-adv-x="800" 
d="M714 644l-300 -194v178l116 80l-116 80v180l300 -192v-132zM368 644l-300 -194v178l116 80l-116 80v180l300 -192v-132z" />
    <glyph glyph-name="ellipsis" unicode="&#x2026;" horiz-adv-x="904" 
d="M858 100q0 -42 -30 -71t-72 -29t-72 29t-30 71t30 72t72 30t72 -30t30 -72zM554 100q0 -42 -30 -71t-72 -29t-72 29t-30 71t30 72t72 30t72 -30t30 -72zM250 100q0 -42 -30 -71t-72 -29t-72 29t-30 71t30 72t72 30t72 -30t30 -72z" />
    <glyph glyph-name="nonbreakingspace" unicode="&#xa0;" horiz-adv-x="400" 
 />
    <glyph glyph-name="Agrave" unicode="&#xc0;" horiz-adv-x="1060" 
d="M950 0h-272q27 40 35 91q5 30 5 85v280h-436q0 -27 -1 -86t-1 -89q0 -98 8 -167t32 -114h-280q29 43 42.5 88t13.5 88v226q0 260 108.5 516.5t294.5 415.5q199 170 389 170h25.5t36.5 -4q-23 -40 -30.5 -81.5t-7.5 -88.5v-1154q0 -52 5 -82q9 -50 33 -94zM718 642v640
q-104 -56 -197 -181q-80 -107 -139 -244q-50 -115 -70 -215h406zM894 1601h-184l-232 298h200z" />
    <glyph glyph-name="Atilde" unicode="&#xc3;" horiz-adv-x="1060" 
d="M950 0h-272q27 40 35 91q5 30 5 85v280h-436q0 -27 -1 -86t-1 -89q0 -98 8 -167t32 -114h-280q29 43 42.5 88t13.5 88v226q0 260 108.5 516.5t294.5 415.5q199 170 389 170h25.5t36.5 -4q-23 -40 -30.5 -81.5t-7.5 -88.5v-1154q0 -52 5 -82q9 -50 33 -94zM718 642v640
q-104 -56 -197 -181q-80 -107 -139 -244q-50 -115 -70 -215h406zM994 1633q-48 -32 -132 -32q-59 0 -142 27t-134 27q-35 0 -69.5 -15t-62.5 -41v188q48 32 132 32q47 0 102 -16q131 -38 174 -38q35 0 69.5 15t62.5 41v-188z" />
    <glyph glyph-name="Otilde" unicode="&#xd5;" horiz-adv-x="1340" 
d="M1282 756q0 -348 -169 -552t-457 -204q-273 0 -435.5 197.5t-162.5 528.5q0 379 160.5 577.5t455.5 198.5q286 0 447 -195t161 -551zM1090 772q0 243 -111 395q-116 159 -317 159t-312 -177q-100 -159 -100 -411q0 -232 104 -386q113 -168 308 -168q205 0 322 179
q106 162 106 409zM925 1635q-48 -32 -132 -32q-59 0 -142 27t-134 27q-35 0 -69.5 -15t-62.5 -41v188q48 32 132 32q47 0 102 -16q131 -38 174 -38q35 0 69.5 15t62.5 41v-188z" />
    <glyph glyph-name="OE" unicode="&#x152;" horiz-adv-x="1814" 
d="M1762 0h-896l24 42q-35 -18 -93 -30t-129 -12q-284 0 -450 201t-166 539q0 342 165.5 551t450.5 209q74 0 137 -17q48 -13 87 -35q-5 20 -8 27t-16 25h810v-248q-49 31 -78 41q-38 13 -98 13h-380v-80h500v-194h-500v-838h464q66 0 113 20q11 5 63 34v-248zM904 264v960
q-45 43 -95 65q-62 27 -141 27q-197 0 -313 -173q-107 -160 -107 -403q0 -240 107 -393q114 -163 311 -163q71 0 134.5 23.5t103.5 56.5z" />
    <glyph glyph-name="OE" unicode="&#x153;" horiz-adv-x="1814" 
d="M1762 0h-896l24 42q-35 -18 -93 -30t-129 -12q-284 0 -450 201t-166 539q0 342 165.5 551t450.5 209q74 0 137 -17q48 -13 87 -35q-5 20 -8 27t-16 25h810v-248q-49 31 -78 41q-38 13 -98 13h-380v-80h500v-194h-500v-838h464q66 0 113 20q11 5 63 34v-248zM904 264v960
q-45 43 -95 65q-62 27 -141 27q-197 0 -313 -173q-107 -160 -107 -403q0 -240 107 -393q114 -163 311 -163q71 0 134.5 23.5t103.5 56.5z" />
    <glyph glyph-name="endash" unicode="&#x2013;" horiz-adv-x="1000" 
d="M900 562h-800v192h800v-192z" />
    <glyph glyph-name="emdash" unicode="&#x2014;" horiz-adv-x="1500" 
d="M1400 562h-1300v192h1300v-192z" />
    <glyph glyph-name="quotedblleft" unicode="&#x201c;" horiz-adv-x="716" 
d="M658 1468q-27 -30 -42 -54q-18 -28 -28 -60q26 -17 42 -48.5t16 -61.5q0 -44 -31 -73t-77 -29q-53 0 -87.5 40.5t-34.5 95.5q0 76 66 151q63 71 112 71q32 0 64 -32zM334 1468q-27 -30 -42 -54q-18 -28 -28 -60q26 -17 42 -48.5t16 -61.5q0 -44 -31 -73t-77 -29
q-53 0 -87.5 40.5t-34.5 95.5q0 76 66 151q63 71 112 71q32 0 64 -32z" />
    <glyph glyph-name="quotedblright" unicode="&#x201d;" horiz-adv-x="716" 
d="M646 1364q0 -76 -64.5 -149t-113.5 -73q-32 0 -64 32q27 30 43.5 56t26.5 58q-26 17 -42 48.5t-16 61.5q0 44 31 73t77 29q53 0 87.5 -40.5t34.5 -95.5zM322 1364q0 -76 -64.5 -149t-113.5 -73q-32 0 -64 32q27 30 43.5 56t26.5 58q-26 17 -42 48.5t-16 61.5q0 44 31 73
t77 29q53 0 87.5 -40.5t34.5 -95.5z" />
    <glyph glyph-name="quoteleft" unicode="&#x2018;" horiz-adv-x="392" 
d="M334 1468q-27 -30 -42 -54q-18 -28 -28 -60q26 -17 42 -48.5t16 -61.5q0 -44 -31 -73t-77 -29q-53 0 -87.5 40.5t-34.5 95.5q0 76 66 151q63 71 112 71q32 0 64 -32z" />
    <glyph glyph-name="quoteright" unicode="&#x2019;" horiz-adv-x="392" 
d="M322 1364q0 -76 -64.5 -149t-113.5 -73q-32 0 -64 32q27 30 43.5 56t26.5 58q-26 17 -42 48.5t-16 61.5q0 44 31 73t77 29q53 0 87.5 -40.5t34.5 -95.5z" />
    <glyph glyph-name="divide" unicode="&#xf7;" horiz-adv-x="680" 
d="M422 434v-156h-164v156h164zM258 682v156h164v-156h-164zM580 474h-480v168h480v-168z" />
    <glyph glyph-name="ydieresis" unicode="&#xff;" horiz-adv-x="904" 
d="M930 1500q-36 -16 -106 -77q-42 -37 -92 -87q-31 -32 -99.5 -111t-86.5 -101v-948q0 -52 5 -82q9 -50 33 -94h-272q27 40 35 91q5 30 5 85v938q-14 16 -89 99q-78 86 -95 103q-47 52 -81 86q-63 64 -119 98h366q-2 -9 -2 -26q0 -52 38 -94l74 -84q9 11 35 43.5t41 52.5
q24 30 34 53t10 55h366zM711 1601h-192v192h192v-192zM383 1601h-192v192h192v-192z" />
    <glyph glyph-name="Ydieresis" unicode="&#x178;" horiz-adv-x="904" 
d="M930 1500q-36 -16 -106 -77q-42 -37 -92 -87q-31 -32 -99.5 -111t-86.5 -101v-948q0 -52 5 -82q9 -50 33 -94h-272q27 40 35 91q5 30 5 85v938q-14 16 -89 99q-78 86 -95 103q-47 52 -81 86q-63 64 -119 98h366q-2 -9 -2 -26q0 -52 38 -94l74 -84q9 11 35 43.5t41 52.5
q24 30 34 53t10 55h366zM711 1601h-192v192h192v-192zM383 1601h-192v192h192v-192z" />
    <glyph glyph-name="currency" unicode="&#xa4;" horiz-adv-x="854" 
d="M550 742q0 51 -36 87t-87 36t-87 -36t-36 -87t36 -87t87 -36t87 36t36 87zM560 1007l117 117l133 -132l-118 -117q15 -29 23.5 -64t8.5 -69q0 -72 -32 -133l117 -116l-131 -133l-118 116q-32 -15 -63.5 -23t-69.5 -8q-72 0 -133 32l-117 -117l-131 132l116 116
q-15 30 -23.5 65.5t-8.5 68.5q0 72 32 133l-117 118l133 131l116 -117q29 15 64 23.5t69 8.5q72 0 133 -32z" />
    <glyph glyph-name="guilsinglleft" unicode="&#x2039;" horiz-adv-x="456" 
d="M378 450l-300 194v132l300 192v-180l-116 -80l116 -80v-178z" />
    <glyph glyph-name="guilsinglright" unicode="&#x203a;" horiz-adv-x="456" 
d="M378 644l-300 -194v178l116 80l-116 80v180l300 -192v-132z" />
    <glyph glyph-name="daggerdbl" unicode="&#x2021;" horiz-adv-x="792" 
d="M732 270h-230l10 -270h-232l10 270h-230v190h234l4 260l-4 260h-234v190h230l-10 270h232l-10 -270h230v-190h-234l-4 -260l4 -260h234v-190z" />
    <glyph glyph-name="periodcentered" unicode="&#xb7;" 
d="M340 594h-192v232h192v-232z" />
    <glyph glyph-name="periodcentered" unicode="&#x2219;" 
d="M340 594h-192v232h192v-232z" />
    <glyph glyph-name="quotesinglbase" unicode="&#x201a;" horiz-adv-x="392" 
d="M322 52q0 -76 -64.5 -149t-113.5 -73q-32 0 -64 32q27 30 43.5 56t26.5 58q-26 17 -42 48.5t-16 61.5q0 44 31 73t77 29q53 0 87.5 -40.5t34.5 -95.5z" />
    <glyph glyph-name="quotedblbase" unicode="&#x201e;" horiz-adv-x="716" 
d="M646 52q0 -76 -64.5 -149t-113.5 -73q-32 0 -64 32q27 30 43.5 56t26.5 58q-26 17 -42 48.5t-16 61.5q0 44 31 73t77 29q53 0 87.5 -40.5t34.5 -95.5zM322 52q0 -76 -64.5 -149t-113.5 -73q-32 0 -64 32q27 30 43.5 56t26.5 58q-26 17 -42 48.5t-16 61.5q0 44 31 73
t77 29q53 0 87.5 -40.5t34.5 -95.5z" />
    <glyph glyph-name="perthousand" unicode="&#x2030;" horiz-adv-x="2258" 
d="M2110 346q0 -176 -59 -268q-63 -98 -191 -98q-119 0 -180 110q-52 94 -52 248q0 174 54 305q64 155 176 155q125 0 194 -150q58 -126 58 -302zM1534 346q0 -176 -59 -268q-63 -98 -191 -98q-119 0 -180 110q-52 94 -52 248q0 174 54 305q64 155 176 155q125 0 194 -150
q58 -126 58 -302zM1254 1354q-48 -55 -74.5 -96.5t-43.5 -83.5l-464 -1174h-242q40 44 75 106q23 41 41 86l462 1162h246zM624 902q0 -176 -59 -268q-63 -98 -191 -98q-119 0 -180 110q-52 94 -52 248q0 174 54 305q64 155 176 155q125 0 194 -150q58 -126 58 -302z
M1958 364q0 87 -24 158q-28 82 -72 82q-37 0 -59.5 -81.5t-22.5 -170.5q0 -75 15 -121q21 -65 67 -65q58 0 80 62q16 45 16 136zM1382 364q0 87 -24 158q-28 82 -72 82q-37 0 -59.5 -81.5t-22.5 -170.5q0 -75 15 -121q21 -65 67 -65q58 0 80 62q16 45 16 136zM472 920
q0 87 -24 158q-28 82 -72 82q-37 0 -59.5 -81.5t-22.5 -170.5q0 -75 15 -121q21 -65 67 -65q58 0 80 62q16 45 16 136z" />
    <glyph glyph-name="Acircumflex" unicode="&#xc2;" horiz-adv-x="1060" 
d="M950 0h-272q27 40 35 91q5 30 5 85v280h-436q0 -27 -1 -86t-1 -89q0 -98 8 -167t32 -114h-280q29 43 42.5 88t13.5 88v226q0 260 108.5 516.5t294.5 415.5q199 170 389 170h25.5t36.5 -4q-23 -40 -30.5 -81.5t-7.5 -88.5v-1154q0 -52 5 -82q9 -50 33 -94zM718 642v640
q-104 -56 -197 -181q-80 -107 -139 -244q-50 -115 -70 -215h406zM1051 1604h-184l-116 144l-116 -144h-184l220 298h160z" />
    <glyph glyph-name="Ecircumflex" unicode="&#xca;" horiz-adv-x="1034" 
d="M982 0h-874q27 40 35 91q5 30 5 85v1148q0 54 -5 84q-9 53 -35 92h790v-248q-49 31 -78 41q-38 13 -98 13h-380v-80h500v-194h-500v-838h464q66 0 113 20q11 5 63 34v-248zM820 1605h-184l-116 144l-116 -144h-184l220 298h160z" />
    <glyph glyph-name="Aacute" unicode="&#xc1;" horiz-adv-x="1060" 
d="M950 0h-272q27 40 35 91q5 30 5 85v280h-436q0 -27 -1 -86t-1 -89q0 -98 8 -167t32 -114h-280q29 43 42.5 88t13.5 88v226q0 260 108.5 516.5t294.5 415.5q199 170 389 170h25.5t36.5 -4q-23 -40 -30.5 -81.5t-7.5 -88.5v-1154q0 -52 5 -82q9 -50 33 -94zM718 642v640
q-104 -56 -197 -181q-80 -107 -139 -244q-50 -115 -70 -215h406zM867 1904l-232 -298h-184l216 298h200z" />
    <glyph glyph-name="Edieresis" unicode="&#xcb;" horiz-adv-x="1034" 
d="M982 0h-874q27 40 35 91q5 30 5 85v1148q0 54 -5 84q-9 53 -35 92h790v-248q-49 31 -78 41q-38 13 -98 13h-380v-80h500v-194h-500v-838h464q66 0 113 20q11 5 63 34v-248zM792 1601h-192v192h192v-192zM464 1601h-192v192h192v-192z" />
    <glyph glyph-name="Egrave" unicode="&#xc8;" horiz-adv-x="1034" 
d="M982 0h-874q27 40 35 91q5 30 5 85v1148q0 54 -5 84q-9 53 -35 92h790v-248q-49 31 -78 41q-38 13 -98 13h-380v-80h500v-194h-500v-838h464q66 0 113 20q11 5 63 34v-248zM729 1606h-184l-232 298h200z" />
    <glyph glyph-name="Iacute" unicode="&#xcd;" 
d="M380 0h-272q27 40 35 91q5 30 5 85v1148q0 54 -5 84q-9 53 -35 92h272q-23 -42 -30.5 -85.5t-7.5 -90.5v-1148q0 -52 5 -82q9 -50 33 -94zM519 1902l-232 -298h-184l216 298h200z" />
    <glyph glyph-name="Icircumflex" unicode="&#xce;" 
d="M380 0h-272q27 40 35 91q5 30 5 85v1148q0 54 -5 84q-9 53 -35 92h272q-23 -42 -30.5 -85.5t-7.5 -90.5v-1148q0 -52 5 -82q9 -50 33 -94zM545 1606h-184l-116 144l-116 -144h-184l220 298h160z" />
    <glyph glyph-name="Idieresis" unicode="&#xcf;" 
d="M380 0h-272q27 40 35 91q5 30 5 85v1148q0 54 -5 84q-9 53 -35 92h272q-23 -42 -30.5 -85.5t-7.5 -90.5v-1148q0 -52 5 -82q9 -50 33 -94zM504 1587h-192v192h192v-192zM176 1587h-192v192h192v-192z" />
    <glyph glyph-name="Igrave" unicode="&#xcc;" 
d="M380 0h-272q27 40 35 91q5 30 5 85v1148q0 54 -5 84q-9 53 -35 92h272q-23 -42 -30.5 -85.5t-7.5 -90.5v-1148q0 -52 5 -82q9 -50 33 -94zM370 1604h-184l-232 298h200z" />
    <glyph glyph-name="Oacute" unicode="&#xd3;" horiz-adv-x="1340" 
d="M1282 756q0 -348 -169 -552t-457 -204q-273 0 -435.5 197.5t-162.5 528.5q0 379 160.5 577.5t455.5 198.5q286 0 447 -195t161 -551zM1090 772q0 243 -111 395q-116 159 -317 159t-312 -177q-100 -159 -100 -411q0 -232 104 -386q113 -168 308 -168q205 0 322 179
q106 162 106 409zM875 1902l-232 -298h-184l216 298h200z" />
    <glyph glyph-name="Ocircumflex" unicode="&#xd4;" horiz-adv-x="1340" 
d="M1282 756q0 -348 -169 -552t-457 -204q-273 0 -435.5 197.5t-162.5 528.5q0 379 160.5 577.5t455.5 198.5q286 0 447 -195t161 -551zM1090 772q0 243 -111 395q-116 159 -317 159t-312 -177q-100 -159 -100 -411q0 -232 104 -386q113 -168 308 -168q205 0 322 179
q106 162 106 409zM977 1606h-184l-116 144l-116 -144h-184l220 298h160z" />
    <glyph glyph-name="Ograve" unicode="&#xd2;" horiz-adv-x="1340" 
d="M1282 756q0 -348 -169 -552t-457 -204q-273 0 -435.5 197.5t-162.5 528.5q0 379 160.5 577.5t455.5 198.5q286 0 447 -195t161 -551zM1090 772q0 243 -111 395q-116 159 -317 159t-312 -177q-100 -159 -100 -411q0 -232 104 -386q113 -168 308 -168q205 0 322 179
q106 162 106 409zM832 1606h-184l-232 298h200z" />
    <glyph glyph-name="Uacute" unicode="&#xda;" horiz-adv-x="1126" 
d="M1020 -18q-235 52 -464 252q-210 183 -345 426t-135 436q0 65 8 120.5t23 90t21.5 65.5t6.5 60q0 22 -1.5 34t-7.5 34h318q-80 -88 -116 -157q-48 -91 -48 -187q0 -174 82 -353q73 -159 195 -293q115 -126 227 -182v996q0 54 -5 84q-9 53 -35 92h272q-23 -42 -30.5 -85.5
t-7.5 -90.5v-1160q0 -50 7.5 -93t34.5 -89zM812 1904l-232 -298h-184l216 298h200z" />
    <glyph glyph-name="Ucircumflex" unicode="&#xdb;" horiz-adv-x="1126" 
d="M1020 -18q-235 52 -464 252q-210 183 -345 426t-135 436q0 65 8 120.5t23 90t21.5 65.5t6.5 60q0 22 -1.5 34t-7.5 34h318q-80 -88 -116 -157q-48 -91 -48 -187q0 -174 82 -353q73 -159 195 -293q115 -126 227 -182v996q0 54 -5 84q-9 53 -35 92h272q-23 -42 -30.5 -85.5
t-7.5 -90.5v-1160q0 -50 7.5 -93t34.5 -89zM886 1605h-184l-116 144l-116 -144h-184l220 298h160z" />
    <glyph glyph-name="Ugrave" unicode="&#xd9;" horiz-adv-x="1126" 
d="M1020 -18q-235 52 -464 252q-210 183 -345 426t-135 436q0 65 8 120.5t23 90t21.5 65.5t6.5 60q0 22 -1.5 34t-7.5 34h318q-80 -88 -116 -157q-48 -91 -48 -187q0 -174 82 -353q73 -159 195 -293q115 -126 227 -182v996q0 54 -5 84q-9 53 -35 92h272q-23 -42 -30.5 -85.5
t-7.5 -90.5v-1160q0 -50 7.5 -93t34.5 -89zM732 1606h-184l-232 298h200z" />
    <glyph glyph-name="circumflex" unicode="&#x2c6;" horiz-adv-x="600" 
d="M602 1202h-184l-116 144l-116 -144h-184l220 298h160z" />
    <glyph glyph-name="tilde" unicode="&#x2dc;" horiz-adv-x="600" 
d="M572 1314q-48 -32 -132 -32q-59 0 -142 27t-134 27q-35 0 -69.5 -15t-62.5 -41v188q48 32 132 32q47 0 102 -16q131 -38 174 -38q35 0 69.5 15t62.5 41v-188z" />
    <glyph glyph-name="macron" unicode="&#xaf;" horiz-adv-x="600" 
d="M570 1340h-540v160h540v-160z" />
    <glyph glyph-name="cedilla" unicode="&#xb8;" horiz-adv-x="600" 
d="M504 -224q0 -79 -64 -129q-60 -47 -142 -47q-25 0 -65.5 8.5t-58.5 19.5l36 124q20 -13 43 -19.5t45 -6.5q28 0 46 13.5t18 38.5q0 52 -68 52q-28 0 -72 -8v192h108v-84q6 1 14.5 1.5t11.5 0.5q60 0 104 -45t44 -111z" />
    <glyph glyph-name="Scaron" unicode="&#x160;" horiz-adv-x="992" 
d="M783 1899l-220 -298h-160l-220 298h186l114 -144l114 144h186zM950 432q0 -204 -140 -332q-134 -122 -332 -122q-90 0 -164.5 17.5t-151.5 51.5q-51 23 -152 79l158 220q47 -78 132.5 -122t177.5 -44q115 0 184 63q76 70 76 201q0 76 -33 147q-29 64 -84 125
q-41 46 -114.5 109.5t-146.5 128.5q-82 78 -118 136q-48 78 -48 162q0 138 85 211q76 65 199 65q87 0 153 -18t141 -66l-126 -172q-59 41 -70 47q-38 21 -74 21q-104 0 -104 -80q0 -53 93.5 -140t190.5 -174q80 -77 130 -141q65 -84 99 -169q39 -98 39 -204z" />
    <glyph glyph-name="scaron" unicode="&#x161;" horiz-adv-x="1088" 
d="M1083 1899l-220 -298h-160l-220 298h186l114 -144l114 144h186zM1004 1286q-42 27 -71 38.5t-65 11.5q-50 0 -81 -43q-27 -38 -27 -85q0 -71 29 -184.5t58 -234.5t29 -229q0 -255 -168.5 -419.5t-419.5 -164.5q-42 0 -97 5.5t-99 16.5v228q65 -30 110 -40t106 -10
q163 0 259 120q89 111 89 276q0 108 -28 226.5t-54 225.5q-30 122 -30 196q0 123 83 209q90 93 233 93q39 0 70.5 -3t73.5 -9v-224z" />
    <glyph glyph-name="Zcaron" unicode="&#x17d;" horiz-adv-x="950" 
d="M812 1903l-220 -298h-160l-220 298h186l114 -144l114 144h186zM876 1500l-568 -1314h342q64 0 114 12t104 44v-242h-806v86l522 1230h-238q-47 0 -97 -16q-40 -13 -91 -40v240h718z" />
    <glyph glyph-name="zcaron" unicode="&#x17e;" horiz-adv-x="950" 
d="M812 1903l-220 -298h-160l-220 298h186l114 -144l114 144h186zM876 1500l-568 -1314h342q64 0 114 12t104 44v-242h-806v86l522 1230h-238q-47 0 -97 -16q-40 -13 -91 -40v240h718z" />
    <glyph glyph-name="brokenbar" unicode="&#xa6;" 
d="M344 955h-196v645h196v-645zM344 -100h-196v645h196v-645z" />
    <glyph glyph-name="Eth" unicode="&#xd0;" horiz-adv-x="1120" 
d="M1044 516q0 -244 -115.5 -380t-304.5 -136h-516q27 40 35 91q5 30 5 85v434h-116v186h116v538q0 53 -5 84q-9 54 -35 96q206 -20 425.5 -165.5t358.5 -358.5q152 -233 152 -474zM846 514q0 220 -164 435q-155 203 -340 265v-418h144v-186h-144v-414h248q114 0 182 77
q74 84 74 241z" />
    <glyph glyph-name="Eth" unicode="&#xf0;" horiz-adv-x="1120" 
d="M1044 516q0 -244 -115.5 -380t-304.5 -136h-516q27 40 35 91q5 30 5 85v434h-116v186h116v538q0 53 -5 84q-9 54 -35 96q206 -20 425.5 -165.5t358.5 -358.5q152 -233 152 -474zM846 514q0 220 -164 435q-155 203 -340 265v-418h144v-186h-144v-414h248q114 0 182 77
q74 84 74 241z" />
    <glyph glyph-name="Yacute" unicode="&#xdd;" horiz-adv-x="904" 
d="M930 1500q-36 -16 -106 -77q-42 -37 -92 -87q-31 -32 -99.5 -111t-86.5 -101v-948q0 -52 5 -82q9 -50 33 -94h-272q27 40 35 91q5 30 5 85v938q-14 16 -89 99q-78 86 -95 103q-47 52 -81 86q-63 64 -119 98h366q-2 -9 -2 -26q0 -52 38 -94l74 -84q9 11 35 43.5t41 52.5
q24 30 34 53t10 55h366zM703 1899l-232 -298h-184l216 298h200z" />
    <glyph glyph-name="Yacute" unicode="&#xfd;" horiz-adv-x="904" 
d="M930 1500q-36 -16 -106 -77q-42 -37 -92 -87q-31 -32 -99.5 -111t-86.5 -101v-948q0 -52 5 -82q9 -50 33 -94h-272q27 40 35 91q5 30 5 85v938q-14 16 -89 99q-78 86 -95 103q-47 52 -81 86q-63 64 -119 98h366q-2 -9 -2 -26q0 -52 38 -94l74 -84q9 11 35 43.5t41 52.5
q24 30 34 53t10 55h366zM703 1899l-232 -298h-184l216 298h200z" />
    <glyph glyph-name="thorn" unicode="&#xde;" horiz-adv-x="998" 
d="M968 1136q0 -99 -64.5 -190.5t-223.5 -321.5q-148 -214 -198 -288l-86 -126v310l300 440q16 23 27 49.5t11 50.5t-15.5 31t-60.5 7h-316v-922q0 -52 5 -82q9 -50 33 -94h-272q27 40 35 91q5 30 5 85v1148q0 54 -5 84q-9 53 -35 92h274q-27 -40 -33.5 -80.5t-6.5 -95.5
v-48h448q82 0 127 -32q51 -36 51 -108z" />
    <glyph glyph-name="thorn" unicode="&#xfe;" horiz-adv-x="998" 
d="M968 1136q0 -99 -64.5 -190.5t-223.5 -321.5q-148 -214 -198 -288l-86 -126v310l300 440q16 23 27 49.5t11 50.5t-15.5 31t-60.5 7h-316v-922q0 -52 5 -82q9 -50 33 -94h-272q27 40 35 91q5 30 5 85v1148q0 54 -5 84q-9 53 -35 92h274q-27 -40 -33.5 -80.5t-6.5 -95.5
v-48h448q82 0 127 -32q51 -36 51 -108z" />
    <glyph glyph-name="multiply" unicode="&#xd7;" horiz-adv-x="680" 
d="M583 682l-126 -125l125 -125l-116 -116l-125 125l-125 -126l-119 119l126 125l-125 125l116 116l125 -125l125 126z" />
    <glyph glyph-name="threequarters" horiz-adv-x="1236" 
d="M1136 1002q0 -343 -217.5 -564.5t-548.5 -221.5v256h-270q0 352 218 573q214 217 548 217v-260h270zM1112 978h-270v260q-307 0 -510 -206q-208 -211 -208 -536h270v-256q306 0 512 210t206 528zM826 846q0 -140 -86 -227t-220 -87v100h-106q0 139 85.5 226.5t216.5 87.5
v-100h110zM802 822h-110v100q-107 -9 -180.5 -82.5t-73.5 -183.5h106v-100q109 0 183.5 76.5t74.5 189.5zM694 778q0 -46 -31 -80t-73 -34v40h-44q0 48 30 79t74 31v-36h44z" />
  </font>
</defs>
</svg>
